SplineFontDB: 3.0
FontName: Nunito-Bold
FullName: Nunito Bold
FamilyName: Nunito
Weight: Bold
Copyright: Copyright (c) 2011 by vernon adams. All rights reserved.
Version: 1.000
FONDName: Nunito Bold
ItalicAngle: 0
UnderlinePosition: -205
UnderlineWidth: 102
Ascent: 1638
Descent: 410
UFOAscent: 2071
UFODescent: -723
LayerCount: 2
Layer: 0 0 "Back"  1
Layer: 1 0 "Fore"  0
FSType: 0
OS2Version: 0
OS2_WeightWidthSlopeOnly: 0
OS2_UseTypoMetrics: 0
CreationTime: 1335200803
ModificationTime: 1335200803
PfmFamily: 0
TTFWeight: 700
TTFWidth: 0
LineGap: 0
VLineGap: 0
Panose: 2 0 5 3 3 0 0 2 0 3
OS2TypoAscent: 2071
OS2TypoAOffset: 0
OS2TypoDescent: -723
OS2TypoDOffset: 0
OS2TypoLinegap: 0
OS2WinAscent: 2071
OS2WinAOffset: 0
OS2WinDescent: -723
OS2WinDOffset: 0
HheadAscent: 2071
HheadAOffset: 0
HheadDescent: -723
HheadDOffset: 0
OS2SubXSize: 5583
OS2SubYSize: 5155
OS2SubXOff: 0
OS2SubYOff: 645
OS2SupXSize: 5583
OS2SupYSize: 5155
OS2SupXOff: 0
OS2SupYOff: 3006
OS2StrikeYSize: 102
OS2StrikeYPos: 512
OS2Vendor: 'newt'
OS2CodePages: 20000001.00000000
OS2UnicodeRanges: 800000ef.5000204b.00000000.00000000
Lookup: 258 0 0 "'kern' Horizontal Kerning lookup 0"  {"'kern' Horizontal Kerning lookup 0 subtable"  } ['kern' ('DFLT' <'dflt' > ) ]
Lookup: 258 0 0 "'kern' Horizontal Kerning in Latin lookup 0"  {"'kern' Horizontal Kerning in Latin lookup 0 subtable"  } ['kern' ('latn' <'dflt' > ) ]
DEI: 91125
LangName: 1033 "" "" "" "vernonadams: Nunito Bold: 2011" "" "Version 1.000" "" "Nunito Bold is a trademark of vernon adams." "vernon adams" "vernon adams" "Copyright (c) 2011 by vernon adams. All rights reserved." "" "www.newtypography.co.uk" "SIL Open Font License, Version 1.1+AAoA-This Font Software is licensed under the SIL Open Font License, Version 1.1.+AAoA-This license is available with a FAQ at: http://scripts.sil.org/OFL" "http://scripts.sil.org/OFL" "" "" "" "Nunito Bold" 
PickledData: "(dp1
S'org.robofab.glyphOrder'
p2
(S'.notdef'
S'NULL'
S'CR'
S'space'
S'exclam'
S'quotedbl'

StartChar: A
Encoding: 65 65 1
Width: 1505
VWidth: 0
Flags: W
LayerCount: 2
Fore
SplineSet
741 1179 m 1
 521 536 l 1
 965 536 l 1
 746 1179 l 1
 741 1179 l 1
1393 303 m 2
 1411 256 1439 194 1439 154 c 0
 1439 56 1362 0 1271 0 c 0
 1166 0 1130 55 1074 203 c 2
 1026 330 l 1
 460 330 l 1
 419 203 l 2
 370 51 327 0 222 0 c 0
 131 0 54 56 54 154 c 1
 53 194 82 256 100 303 c 2
 369 1030 l 2
 470 1302 539 1452 744 1452 c 0
 936 1452 1000 1346 1119 1030 c 2
 1393 303 l 2
EndSplineSet
EndChar

StartChar: AE
Encoding: 198 198 2
Width: 1991
VWidth: 0
Flags: W
LayerCount: 2
Fore
SplineSet
1274 0 m 2
 1152 0 1109 58 1086 215 c 2
 1069 330 l 1
 508 330 l 1
 462 244 l 1
 393 105 295 4 200 4 c 0
 126 4 64 47 64 124 c 1
 65 168 93 227 121 279 c 2
 539 1043 l 1
 686 1326 779 1450 979 1450 c 0
 1240 1450 1498 1451 1761 1451 c 0
 1858 1451 1947 1417 1947 1316 c 0
 1947 1217 1865 1192 1717 1192 c 2
 1300 1192 l 1
 1348 868 l 1
 1726 868 l 2
 1820 868 1910 840 1910 733 c 0
 1910 634 1831 609 1687 609 c 2
 1379 609 l 1
 1432 259 l 1
 1674 259 l 2
 1815 259 1954 229 1954 115 c 0
 1954 27 1889 0 1783 0 c 2
 1274 0 l 2
599 536 m 1
 1045 536 l 1
 957 1253 l 1
 953 1253 l 1
 599 536 l 1
EndSplineSet
EndChar

StartChar: B
Encoding: 66 66 9
Width: 1464
VWidth: 0
Flags: W
LayerCount: 2
Fore
SplineSet
152 1276 m 2
 152 1401 260 1452 384 1452 c 2
 694 1452 l 2
 966 1452 1312 1440 1312 1087 c 0
 1312 930 1199 788 1034 759 c 1
 1034 755 l 1
 1234 726 1360 587 1360 402 c 0
 1360 199 1203 0 854 0 c 2
 384 0 l 2
 233 0 152 36 152 257 c 2
 152 1276 l 2
505 224 m 1
 671 224 l 2
 884 224 997 259 997 441 c 0
 997 608 864 649 661 649 c 2
 505 649 l 1
 505 224 l 1
505 1228 m 1
 505 831 l 1
 648 831 l 2
 825 831 954 872 954 1035 c 0
 954 1197 825 1228 669 1228 c 2
 505 1228 l 1
EndSplineSet
EndChar

StartChar: C
Encoding: 67 67 10
Width: 1464
VWidth: 0
Flags: W
LayerCount: 2
Fore
SplineSet
86 714 m 0
 86 1199 387 1486 808 1486 c 0
 1141 1486 1300 1399 1300 1284 c 0
 1300 1206 1229 1171 1165 1171 c 0
 1146 1171 1127 1171 1110 1176 c 0
 1009 1203 929 1228 833 1228 c 0
 632 1228 470 1125 470 723 c 0
 470 414 592 224 835 224 c 0
 933 224 1051 270 1166 313 c 0
 1175 316 1185 317 1198 317 c 0
 1265 317 1310 263 1310 199 c 0
 1310 43 980 -35 786 -35 c 0
 391 -35 86 234 86 714 c 0
EndSplineSet
EndChar

StartChar: D
Encoding: 68 68 13
Width: 1558
VWidth: 0
Flags: W
LayerCount: 2
Fore
SplineSet
326 0 m 2
 181 0 143 128 143 255 c 2
 143 1195 l 2
 143 1375 208 1452 397 1452 c 2
 645 1452 l 2
 1190 1452 1470 1216 1470 716 c 0
 1470 227 1152 0 674 0 c 2
 326 0 l 2
509 224 m 1
 646 224 l 2
 949 224 1082 364 1082 725 c 0
 1082 1062 944 1226 655 1226 c 2
 509 1226 l 1
 509 224 l 1
EndSplineSet
EndChar

StartChar: E
Encoding: 69 69 14
Width: 1272
VWidth: 0
Flags: W
LayerCount: 2
Fore
SplineSet
334 0 m 2
 198 0 154 123 154 235 c 2
 154 1188 l 2
 154 1340 178 1452 386 1452 c 2
 1028 1452 l 2
 1105 1452 1168 1393 1168 1321 c 0
 1168 1249 1105 1192 1028 1192 c 2
 513 1192 l 1
 513 868 l 1
 983 868 l 2
 1060 868 1123 810 1123 738 c 0
 1123 666 1060 609 983 609 c 2
 513 609 l 1
 513 259 l 1
 1053 259 l 2
 1125 259 1183 201 1183 129 c 0
 1183 57 1125 0 1053 0 c 2
 334 0 l 2
EndSplineSet
EndChar

StartChar: Eth
Encoding: 208 208 19
Width: 1558
VWidth: 0
Flags: W
LayerCount: 2
Fore
SplineSet
545 0 m 2
 485 0 l 2
 333 0 164 8 151 140 c 1
 144 179 143 218 143 258 c 2
 143 648 l 1
 88 648 l 2
 34 648 -15 668 -15 732 c 0
 -15 783 19 815 88 815 c 2
 143 815 l 1
 143 1193 l 2
 143 1318 164 1451 353 1451 c 2
 658 1451 l 2
 830 1451 963 1433 1078 1388 c 0
 1347 1281 1470 1048 1470 716 c 0
 1470 281 1206 21 779 2 c 1
 702 1 624 0 545 0 c 2
509 648 m 1
 509 233 l 1
 635 233 l 2
 933 233 1082 345 1082 725 c 0
 1082 1054 950 1218 655 1218 c 2
 509 1218 l 1
 509 815 l 1
 582 815 l 2
 650 815 688 790 688 731 c 0
 688 687 656 648 605 648 c 2
 509 648 l 1
EndSplineSet
EndChar

StartChar: Euro
Encoding: 8364 8364 20
Width: 1464
VWidth: 0
Flags: W
LayerCount: 2
Fore
SplineSet
137 810 m 1
 83 810 l 2
 39 810 18 844 18 877 c 0
 18 909 38 943 83 943 c 2
 155 943 l 1
 224 1284 490 1464 831 1464 c 1
 870 1462 l 2
 973 1457 1069 1433 1165 1402 c 1
 1221 1377 1247 1330 1247 1278 c 0
 1247 1204 1190 1158 1122 1158 c 0
 1047 1158 941 1191 861 1191 c 0
 691 1191 593 1087 550 943 c 1
 906 943 l 2
 971 943 1041 939 1041 878 c 0
 1041 842 1019 810 976 810 c 2
 525 810 l 1
 521 779 520 751 520 722 c 0
 520 689 521 656 525 623 c 1
 895 623 l 2
 963 623 1032 619 1032 557 c 0
 1032 522 1010 490 967 490 c 2
 553 490 l 1
 598 349 699 250 868 250 c 0
 936 250 1010 270 1086 283 c 0
 1093 285 1101 285 1108 285 c 0
 1194 285 1245 243 1245 161 c 0
 1245 92 1198 55 1122 31 c 0
 1014 -3 897 -21 781 -20 c 1
 472 -12 231 161 159 490 c 1
 75 490 l 2
 30 490 9 522 9 557 c 0
 9 589 30 623 75 623 c 2
 138 623 l 1
 134 655 134 686 134 725 c 0
 134 750 135 779 137 810 c 1
EndSplineSet
EndChar

StartChar: F
Encoding: 70 70 21
Width: 1197
VWidth: 0
Flags: W
LayerCount: 2
Fore
SplineSet
971 872 m 2
 1043 872 1101 814 1101 742 c 0
 1101 670 1043 613 971 613 c 2
 519 613 l 1
 518 195 l 2
 518 86 435 0 332 0 c 0
 229 0 147 86 147 195 c 2
 147 1267 l 2
 147 1395 256 1452 382 1452 c 2
 1002 1452 l 2
 1074 1452 1132 1393 1132 1321 c 0
 1132 1249 1074 1192 1002 1192 c 2
 519 1192 l 1
 519 872 l 1
 971 872 l 2
EndSplineSet
EndChar

StartChar: G
Encoding: 71 71 22
Width: 1578
VWidth: 0
Flags: W
LayerCount: 2
Fore
SplineSet
1322 782 m 0
 1427 782 1445 725 1445 612 c 2
 1445 314 l 2
 1445 106 1401 37 1177 1 c 0
 1081 -14 951 -35 855 -35 c 0
 386 -35 89 204 89 725 c 0
 89 1144 327 1486 852 1486 c 0
 1023 1486 1191 1451 1311 1400 c 0
 1371 1375 1400 1329 1400 1278 c 0
 1400 1195 1343 1152 1268 1152 c 0
 1193 1152 1010 1227 889 1227 c 0
 595 1227 476 1031 476 710 c 0
 476 355 582 224 847 224 c 0
 927 224 1009 226 1085 245 c 1
 1085 572 l 1
 951 572 l 2
 869 572 807 599 807 679 c 0
 807 740 847 783 931 783 c 0
 1063 783 1189 782 1322 782 c 0
EndSplineSet
EndChar

StartChar: H
Encoding: 72 72 23
Width: 1558
VWidth: 0
Flags: W
LayerCount: 2
Fore
SplineSet
1037 1258 m 2
 1037 1367 1121 1453 1223 1453 c 0
 1326 1453 1409 1367 1409 1258 c 2
 1409 195 l 2
 1409 86 1326 0 1223 0 c 0
 1120 0 1038 86 1038 195 c 2
 1037 608 l 1
 522 608 l 1
 522 195 l 2
 522 86 439 0 336 0 c 0
 233 0 151 86 151 195 c 2
 151 1258 l 2
 151 1367 233 1453 336 1453 c 0
 439 1453 522 1367 522 1258 c 2
 522 893 l 1
 1037 893 l 1
 1037 1258 l 2
EndSplineSet
EndChar

StartChar: I
Encoding: 73 73 24
Width: 689
VWidth: 0
Flags: W
LayerCount: 2
Fore
SplineSet
530 195 m 2
 530 86 447 0 344 0 c 0
 241 0 159 86 159 195 c 2
 159 1258 l 2
 159 1367 241 1453 344 1453 c 0
 447 1453 530 1367 530 1258 c 2
 530 195 l 2
EndSplineSet
EndChar

StartChar: J
Encoding: 74 74 29
Width: 1204
VWidth: 0
Flags: W
LayerCount: 2
Fore
SplineSet
699 1258 m 2
 699 1367 781 1453 884 1453 c 0
 987 1453 1070 1367 1070 1258 c 2
 1069 474 l 2
 1068 139 876 -34 544 -34 c 0
 396 -34 257 8 157 107 c 0
 109 154 74 215 74 263 c 0
 74 328 138 389 203 389 c 0
 258 389 299 323 346 286 c 0
 395 247 445 224 510 224 c 0
 641 224 699 301 699 472 c 2
 699 1258 l 2
EndSplineSet
EndChar

StartChar: K
Encoding: 75 75 30
Width: 1451
VWidth: 0
Flags: W
LayerCount: 2
Fore
SplineSet
526 815 m 1
 913 1322 l 2
 972 1399 1023 1452 1096 1452 c 0
 1178 1452 1265 1386 1265 1298 c 0
 1265 1245 1213 1182 1169 1130 c 2
 870 781 l 1
 1218 344 l 2
 1263 287 1315 217 1315 163 c 0
 1315 75 1224 0 1140 0 c 0
 1044 -1 975 95 919 171 c 2
 526 704 l 1
 528 195 l 2
 528 86 445 0 342 0 c 0
 239 0 157 86 157 195 c 2
 157 1258 l 2
 157 1367 239 1453 342 1453 c 0
 441 1453 528 1367 528 1258 c 2
 526 815 l 1
EndSplineSet
EndChar

StartChar: L
Encoding: 76 76 31
Width: 1197
VWidth: 0
Flags: W
LayerCount: 2
Fore
SplineSet
1023 266 m 2
 1096 266 1156 206 1156 133 c 0
 1156 60 1096 0 1023 0 c 2
 338 0 l 2
 193 0 152 137 152 273 c 2
 152 1258 l 2
 152 1367 234 1453 337 1453 c 0
 440 1453 523 1367 523 1258 c 2
 524 266 l 1
 1023 266 l 2
EndSplineSet
EndChar

StartChar: Lslash
Encoding: 321 321 32
Width: 1197
VWidth: 0
Flags: W
LayerCount: 2
Fore
SplineSet
1023 266 m 2
 1096 266 1156 206 1156 133 c 0
 1156 60 1096 0 1023 0 c 2
 338 0 l 2
 193 0 152 137 152 273 c 2
 152 657 l 1
 67 630 l 2
 59 627 51 626 43 626 c 0
 -13 626 -55 678 -55 737 c 0
 -55 772 -34 812 10 826 c 2
 152 872 l 1
 152 1258 l 2
 152 1367 234 1453 337 1453 c 0
 440 1453 523 1367 523 1258 c 2
 523 994 l 1
 712 1056 l 2
 722 1059 732 1061 743 1061 c 0
 800 1061 840 1004 840 951 c 0
 840 908 819 875 775 861 c 2
 523 778 l 1
 523 266 l 1
 1023 266 l 2
EndSplineSet
EndChar

StartChar: M
Encoding: 77 77 33
Width: 2054
VWidth: 0
Flags: W
LayerCount: 2
Fore
SplineSet
1592 1103 m 1
 1457 767 1343 485 1288 353 c 1
 1275 320 l 2
 1221 184 1152 67 1023 67 c 0
 904 67 846 150 778 319 c 2
 463 1099 l 1
 463 145 l 2
 463 64 397 -1 316 -1 c 0
 235 -1 170 64 170 145 c 2
 170 1068 l 2
 170 1301 207 1453 423 1453 c 0
 578 1453 644 1351 756 1081 c 2
 1023 436 l 1
 1031 436 l 1
 1301 1081 l 2
 1397 1310 1478 1453 1635 1453 c 0
 1807 1453 1885 1356 1885 1104 c 2
 1885 145 l 2
 1885 64 1819 -1 1738 -1 c 0
 1657 -1 1592 64 1592 145 c 2
 1592 1103 l 1
EndSplineSet
EndChar

StartChar: N
Encoding: 78 78 34
Width: 1598
VWidth: 0
Flags: W
LayerCount: 2
Fore
SplineSet
458 157 m 2
 458 70 387 0 300 0 c 0
 212 0 144 70 144 157 c 2
 144 1249 l 2
 144 1380 226 1453 326 1453 c 1
 411 1452 488 1383 551 1297 c 2
 1141 497 l 1
 1141 1296 l 2
 1141 1383 1209 1453 1297 1453 c 0
 1384 1453 1454 1383 1454 1296 c 2
 1454 278 l 2
 1454 131 1431 0 1276 0 c 0
 1192 0 1121 68 1054 156 c 1
 458 966 l 1
 458 157 l 2
EndSplineSet
EndChar

StartChar: O
Encoding: 79 79 37
Width: 1612
VWidth: 0
Flags: W
LayerCount: 2
Fore
SplineSet
480 725 m 0
 480 394 582 224 806 224 c 0
 1026 224 1133 393 1133 725 c 0
 1133 1045 1032 1227 806 1227 c 0
 582 1227 480 1045 480 725 c 0
91 725 m 0
 91 1166 327 1486 806 1486 c 0
 1274 1486 1521 1178 1521 725 c 0
 1521 279 1279 -35 806 -35 c 0
 344 -35 91 265 91 725 c 0
EndSplineSet
EndChar

StartChar: OE
Encoding: 338 338 38
Width: 1999
VWidth: 0
Flags: W
LayerCount: 2
Fore
SplineSet
996 1209 m 1
 979 1216 898 1231 763 1231 c 0
 552 1231 450 1038 450 731 c 0
 450 427 533 220 761 220 c 0
 886 220 985 238 996 246 c 1
 996 1209 l 1
1351 1195 m 1
 1351 868 l 1
 1645 868 l 2
 1741 868 1846 853 1846 739 c 0
 1846 634 1758 612 1618 612 c 2
 1351 612 l 1
 1351 257 l 1
 1677 257 l 2
 1788 257 1910 244 1910 128 c 0
 1910 34 1841 0 1733 0 c 2
 1061 0 l 1
 1032 -1 960 -6 887 -11 c 2
 824 -15 l 2
 791 -17 760 -18 732 -18 c 0
 345 -18 86 255 86 725 c 0
 86 1189 331 1469 768 1469 c 0
 885 1469 1055 1452 1107 1452 c 2
 1716 1452 l 2
 1810 1452 1895 1426 1895 1324 c 0
 1895 1218 1809 1195 1666 1195 c 2
 1351 1195 l 1
EndSplineSet
EndChar

StartChar: Oslash
Encoding: 216 216 44
Width: 1612
VWidth: 0
Flags: W
LayerCount: 2
Fore
SplineSet
1251 1345 m 1
 1430 1216 1521 1001 1521 725 c 0
 1521 274 1276 -35 806 -35 c 0
 701 -35 611 -19 528 12 c 1
 473 -78 l 2
 446 -122 423 -159 380 -159 c 0
 331 -159 287 -127 287 -72 c 0
 287 -45 300 -14 316 13 c 2
 369 102 l 1
 184 227 91 449 91 725 c 0
 91 1168 330 1486 806 1486 c 0
 915 1486 1006 1469 1090 1438 c 1
 1159 1556 l 2
 1178 1588 1207 1604 1240 1604 c 0
 1288 1604 1333 1568 1333 1517 c 0
 1333 1489 1319 1458 1303 1431 c 2
 1251 1345 l 1
1149 725 m 0
 1149 837 1115 949 1033 1013 c 1
 681 251 l 1
 720 228 763 224 815 224 c 0
 1038 224 1149 402 1149 725 c 0
464 725 m 0
 464 622 499 482 586 434 c 1
 937 1197 l 1
 902 1216 862 1226 819 1226 c 0
 575 1226 464 1061 464 725 c 0
EndSplineSet
EndChar

StartChar: P
Encoding: 80 80 46
Width: 1391
VWidth: 0
Flags: W
LayerCount: 2
Fore
SplineSet
524 195 m 2
 524 86 439 0 337 0 c 0
 234 0 152 86 152 195 c 2
 152 1178 l 2
 152 1331 177 1453 392 1453 c 2
 753 1453 l 2
 1060 1453 1343 1361 1343 1005 c 0
 1343 699 1106 554 753 554 c 2
 524 554 l 1
 524 195 l 2
692 777 m 1
 862 781 979 821 979 1005 c 0
 979 1182 865 1228 709 1228 c 2
 524 1228 l 1
 524 777 l 1
 692 777 l 1
EndSplineSet
EndChar

StartChar: Q
Encoding: 81 81 47
Width: 1612
VWidth: 0
Flags: W
LayerCount: 2
Fore
SplineSet
91 725 m 0
 91 1167 329 1486 806 1486 c 0
 1267 1486 1515 1196 1515 735 c 0
 1515 538 1434 369 1314 246 c 1
 1392 246 l 2
 1480 246 1570 224 1570 125 c 0
 1570 42 1514 3 1401 -1 c 2
 1042 -15 l 1
 1020 -17 1001 -17 987 -17 c 0
 978 -17 970 -17 966 -17 c 2
 920 -24 l 2
 869 -32 839 -35 811 -35 c 0
 344 -35 91 265 91 725 c 0
480 725 m 0
 480 394 582 224 806 224 c 0
 1026 224 1133 393 1133 725 c 0
 1133 1045 1032 1227 806 1227 c 0
 582 1227 480 1045 480 725 c 0
EndSplineSet
EndChar

StartChar: R
Encoding: 82 82 48
Width: 1464
VWidth: 0
Flags: W
LayerCount: 2
Fore
SplineSet
526 195 m 2
 526 86 443 0 340 0 c 0
 237 0 155 86 155 195 c 2
 155 1269 l 2
 155 1392 260 1453 383 1453 c 2
 784 1453 l 2
 1080 1453 1347 1391 1347 1088 c 0
 1347 922 1262 788 1025 748 c 1
 1025 744 l 1
 1280 712 1304 595 1333 280 c 0
 1335 251 1337 224 1337 197 c 0
 1337 82 1302 1 1156 1 c 0
 1022 1 984 133 965 292 c 0
 938 524 926 598 729 598 c 2
 526 598 l 1
 526 195 l 2
680 830 m 2
 824 830 983 853 983 1029 c 0
 983 1224 830 1228 671 1228 c 2
 520 1228 l 1
 520 830 l 1
 680 830 l 2
EndSplineSet
EndChar

StartChar: S
Encoding: 83 83 49
Width: 1371
VWidth: 0
Flags: W
LayerCount: 2
Fore
SplineSet
461 1073 m 0
 461 943 648 908 824 856 c 0
 1107 772 1293 675 1293 419 c 0
 1293 139 1063 -35 695 -35 c 0
 413 -35 90 70 90 226 c 0
 90 292 152 362 205 362 c 0
 253 362 294 326 350 305 c 1
 442 264 560 224 685 224 c 0
 821 224 936 272 936 388 c 0
 936 477 867 522 783 552 c 2
 738 568 l 2
 721 574 706 579 687 585 c 2
 635 600 l 1
 589 611 577 618 545 629 c 2
 451 662 l 1
 208 750 109 845 109 1048 c 0
 109 1315 338 1486 706 1486 c 0
 907 1486 1236 1410 1236 1238 c 0
 1236 1171 1181 1124 1119 1124 c 0
 1099 1124 1081 1128 1064 1137 c 0
 939 1201 856 1227 720 1227 c 0
 592 1227 461 1184 461 1073 c 0
EndSplineSet
EndChar

StartChar: T
Encoding: 84 84 51
Width: 1238
VWidth: 0
Flags: W
LayerCount: 2
Fore
SplineSet
161 1188 m 2
 84 1188 18 1248 18 1320 c 0
 18 1393 84 1453 161 1453 c 2
 1074 1453 l 2
 1151 1453 1217 1393 1217 1320 c 0
 1217 1248 1151 1188 1074 1188 c 2
 806 1188 l 1
 806 195 l 2
 806 86 723 0 620 0 c 0
 517 0 435 86 435 195 c 2
 435 1188 l 1
 161 1188 l 2
EndSplineSet
EndChar

StartChar: Thorn
Encoding: 222 222 52
Width: 1391
VWidth: 0
Flags: W
LayerCount: 2
Fore
SplineSet
524 322 m 1
 524 281 l 2
 524 123 464 4 328 4 c 0
 200 4 152 86 152 231 c 2
 152 1228 l 2
 152 1353 171 1481 327 1481 c 0
 447 1481 524 1409 524 1264 c 2
 524 1218 l 1
 723 1218 l 2
 847 1218 971 1210 1070 1174 c 0
 1241 1110 1343 975 1343 773 c 0
 1343 474 1117 322 753 322 c 2
 524 322 l 1
692 555 m 2
 863 555 979 609 979 773 c 0
 979 932 868 985 709 985 c 2
 524 985 l 1
 524 555 l 1
 692 555 l 2
EndSplineSet
EndChar

StartChar: U
Encoding: 85 85 53
Width: 1539
VWidth: 0
Flags: W
LayerCount: 2
Fore
SplineSet
1025 1258 m 2
 1025 1367 1107 1453 1210 1453 c 0
 1313 1453 1396 1367 1396 1258 c 2
 1396 492 l 2
 1396 141 1134 -35 769 -35 c 0
 409 -35 144 136 144 492 c 2
 144 1258 l 2
 144 1367 226 1453 329 1453 c 0
 432 1453 515 1367 515 1258 c 2
 516 498 l 2
 516 306 644 224 769 224 c 0
 895 224 1025 306 1025 498 c 2
 1025 1258 l 2
EndSplineSet
EndChar

StartChar: V
Encoding: 86 86 58
Width: 1451
VWidth: 0
Flags: W
LayerCount: 2
Fore
SplineSet
715 271 m 1
 720 271 l 1
 1023 1289 l 2
 1056 1400 1138 1452 1213 1452 c 0
 1290 1452 1360 1396 1360 1292 c 0
 1360 1262 1355 1230 1344 1196 c 2
 1084 393 l 2
 997 125 936 0 715 0 c 0
 513 0 450 81 357 364 c 2
 78 1209 l 2
 69 1236 66 1259 66 1282 c 0
 66 1385 145 1452 229 1452 c 0
 302 1452 378 1403 413 1286 c 2
 715 271 l 1
EndSplineSet
EndChar

StartChar: W
Encoding: 87 87 59
Width: 2087
VWidth: 0
Flags: W
LayerCount: 2
Fore
SplineSet
1043 1118 m 1
 831 291 l 2
 785 112 721 0 541 0 c 0
 402 0 327 82 283 261 c 2
 44 1226 l 2
 39 1244 37 1262 37 1280 c 0
 37 1384 115 1453 198 1453 c 0
 267 1453 340 1402 366 1279 c 2
 567 329 l 1
 783 1163 l 2
 821 1311 875 1453 1042 1453 c 0
 1186 1453 1255 1347 1306 1163 c 0
 1382 884 1452 609 1528 330 c 1
 1728 1291 l 1
 1752 1400 1829 1454 1905 1454 c 0
 1980 1454 2051 1399 2051 1295 c 0
 2051 1274 2048 1252 2042 1228 c 2
 1813 296 l 2
 1771 124 1704 0 1538 0 c 0
 1373 0 1305 105 1246 329 c 1
 1043 1118 l 1
EndSplineSet
EndChar

StartChar: X
Encoding: 88 88 60
Width: 1374
VWidth: 0
Flags: W
LayerCount: 2
Fore
SplineSet
369 89 m 2
 325 26 270 0 218 0 c 0
 142 0 77 59 77 144 c 0
 77 187 92 235 131 287 c 2
 470 745 l 1
 150 1175 l 2
 121 1214 109 1253 109 1289 c 0
 109 1382 187 1452 273 1452 c 0
 325 1452 379 1424 422 1360 c 2
 705 940 l 1
 987 1350 l 2
 1037 1423 1097 1452 1150 1452 c 0
 1231 1452 1297 1386 1297 1309 c 1
 1296 1276 1285 1242 1262 1211 c 2
 915 745 l 1
 1265 263 l 2
 1288 231 1297 198 1297 167 c 0
 1297 79 1220 -1 1133 -1 c 0
 1080 -1 1026 26 979 97 c 2
 681 539 l 1
 369 89 l 2
EndSplineSet
EndChar

StartChar: Y
Encoding: 89 89 61
Width: 1391
VWidth: 0
Flags: W
LayerCount: 2
Fore
SplineSet
883 195 m 1
 880 86 798 0 695 0 c 0
 592 0 510 86 510 195 c 2
 510 556 l 1
 143 1169 l 2
 118 1210 108 1249 108 1287 c 0
 108 1386 186 1453 271 1453 c 0
 335 1453 404 1416 448 1324 c 1
 711 801 l 1
 715 801 l 1
 989 1328 l 2
 1034 1416 1098 1452 1162 1452 c 0
 1238 1452 1301 1397 1301 1313 c 0
 1301 1278 1291 1240 1266 1199 c 2
 883 562 l 1
 883 195 l 1
EndSplineSet
EndChar

StartChar: Z
Encoding: 90 90 64
Width: 1278
VWidth: 0
Flags: W
LayerCount: 2
Fore
SplineSet
1083 259 m 2
 1155 259 1213 201 1213 129 c 0
 1213 57 1155 0 1083 0 c 2
 208 0 l 2
 111 0 60 54 60 122 c 0
 60 166 88 227 123 276 c 0
 340 583 553 887 769 1194 c 1
 204 1194 l 2
 132 1194 75 1251 75 1323 c 0
 75 1395 132 1453 204 1453 c 2
 1042 1453 l 2
 1134 1453 1211 1421 1211 1329 c 0
 1211 1284 1182 1227 1149 1180 c 2
 499 259 l 1
 1083 259 l 2
EndSplineSet
EndChar

StartChar: a
Encoding: 97 97 66
Width: 1123
VWidth: 0
Flags: W
LayerCount: 2
Fore
SplineSet
712 658 m 2
 712 770 648 812 548 812 c 0
 429 812 341 783 266 764 c 0
 251 760 237 758 225 758 c 0
 181 758 139 788 139 839 c 0
 139 987 385 1023 569 1023 c 0
 824 1023 1005 916 1005 600 c 2
 1005 200 l 2
 1005 96 986 0 863 0 c 0
 767 0 722 66 722 183 c 1
 653 47 517 -12 378 -12 c 0
 190 -12 52 102 52 274 c 0
 52 518 260 615 616 615 c 2
 712 615 l 1
 712 658 l 2
711 466 m 1
 694 466 678 467 661 467 c 0
 496 467 338 440 338 299 c 0
 338 214 405 157 500 157 c 0
 622 157 711 247 711 403 c 2
 711 466 l 1
EndSplineSet
EndChar

StartChar: acute
Encoding: 180 180 69
Width: 569
VWidth: 0
Flags: W
LayerCount: 2
Fore
SplineSet
182 1139 m 2
 167 1126 149 1119 128 1119 c 0
 93 1119 57 1143 57 1186 c 0
 57 1205 68 1221 81 1240 c 2
 280 1528 l 2
 309 1571 341 1603 385 1603 c 0
 448 1603 522 1547 522 1475 c 0
 522 1444 505 1416 476 1391 c 2
 182 1139 l 2
EndSplineSet
EndChar

StartChar: ae
Encoding: 230 230 71
Width: 1774
VWidth: 0
Flags: W
LayerCount: 2
Fore
SplineSet
712 666 m 2
 712 791 622 817 523 817 c 0
 416 817 340 788 269 769 c 0
 252 764 237 763 222 763 c 0
 177 763 139 795 139 844 c 0
 139 1007 448 1033 588 1033 c 1
 725 1029 822 987 882 888 c 1
 963 980 1079 1034 1219 1034 c 0
 1525 1034 1688 828 1688 533 c 0
 1688 470 1642 450 1574 450 c 2
 1014 450 l 1
 1017 302 1065 190 1261 190 c 0
 1376 190 1455 233 1546 257 c 0
 1554 259 1561 260 1568 260 c 0
 1614 260 1642 210 1642 166 c 0
 1642 -1 1274 -20 1207 -20 c 0
 1042 -20 919 46 839 158 c 1
 763 34 625 -20 434 -20 c 0
 196 -20 52 84 52 274 c 0
 52 523 273 616 629 616 c 0
 652 616 691 614 712 614 c 1
 712 666 l 2
1421 599 m 1
 1414 763 1345 856 1221 856 c 0
 1093 856 1021 753 1013 599 c 1
 1421 599 l 1
711 467 m 1
 698 467 676 466 656 466 c 2
 633 466 l 2
 473 466 338 431 338 299 c 0
 338 200 406 150 500 150 c 0
 625 150 707 242 711 403 c 1
 711 467 l 1
EndSplineSet
EndChar

StartChar: ampersand
Encoding: 38 38 74
Width: 1659
VWidth: 0
Flags: W
LayerCount: 2
Fore
SplineSet
1232 581 m 1
 1280 668 1318 857 1361 873 c 0
 1372 877 1384 878 1396 878 c 0
 1465 878 1526 839 1526 757 c 0
 1526 645 1456 435 1365 312 c 1
 1409 266 l 2
 1455 217 1501 155 1501 102 c 0
 1501 33 1438 -28 1369 -28 c 0
 1325 -28 1265 11 1216 62 c 2
 1142 139 l 1
 1033 39 869 -21 676 -21 c 0
 376 -21 72 107 72 408 c 0
 72 601 222 732 446 833 c 1
 329 929 229 1052 229 1182 c 0
 229 1400 447 1511 691 1511 c 0
 911 1511 1154 1415 1154 1191 c 0
 1154 1049 1036 917 874 808 c 1
 959 720 1043 634 1127 546 c 1
 1168 555 1201 570 1232 581 c 1
629 664 m 1
 525 616 401 506 401 416 c 0
 401 267 528 185 681 185 c 0
 794 185 886 228 977 300 c 1
 629 664 l 1
537 1193 m 0
 537 1113 614 1024 684 965 c 1
 769 1034 853 1109 853 1193 c 0
 853 1276 776 1315 697 1315 c 0
 619 1315 537 1281 537 1193 c 0
EndSplineSet
EndChar

StartChar: asciicircum
Encoding: 94 94 77
Width: 1287
VWidth: 0
Flags: W
LayerCount: 2
Fore
SplineSet
642 1211 m 1
 392 702 l 2
 365 647 335 607 288 607 c 0
 237 607 195 642 195 697 c 0
 195 718 211 751 225 778 c 2
 501 1331 l 2
 532 1394 571 1451 643 1451 c 0
 706 1451 746 1407 784 1331 c 2
 1060 778 l 2
 1073 751 1089 717 1089 695 c 0
 1089 643 1048 610 997 610 c 0
 950 610 921 651 892 702 c 1
 642 1211 l 1
EndSplineSet
EndChar

StartChar: asciitilde
Encoding: 126 126 78
Width: 1287
VWidth: 0
Flags: W
LayerCount: 2
Fore
SplineSet
786 1313 m 0
 844 1313 815 1419 914 1419 c 0
 951 1419 992 1389 992 1346 c 0
 992 1206 901 1133 794 1133 c 0
 677 1133 584 1235 509 1240 c 1
 454 1240 466 1193 406 1148 c 0
 392 1137 375 1136 358 1136 c 0
 317 1136 284 1166 284 1206 c 0
 284 1361 407 1419 487 1419 c 0
 615 1419 717 1313 786 1313 c 0
EndSplineSet
EndChar

StartChar: asterisk
Encoding: 42 42 79
Width: 958
VWidth: 0
Flags: W
LayerCount: 2
Fore
SplineSet
600 1183 m 1
 660 1184 716 1188 776 1188 c 0
 815 1188 848 1157 848 1116 c 0
 848 1076 816 1045 776 1045 c 0
 716 1045 659 1049 599 1049 c 1
 666 940 l 2
 682 913 698 882 698 862 c 0
 698 825 666 792 626 792 c 0
 590 792 570 817 553 848 c 2
 477 985 l 1
 403 848 l 2
 386 817 365 792 328 792 c 0
 287 792 257 825 257 866 c 0
 257 884 267 902 278 920 c 2
 357 1049 l 1
 297 1048 241 1045 182 1045 c 0
 143 1045 109 1077 109 1116 c 0
 109 1157 141 1188 182 1188 c 0
 239 1188 296 1183 355 1183 c 1
 282 1303 l 2
 269 1323 254 1343 254 1368 c 0
 254 1405 283 1441 327 1441 c 0
 356 1441 380 1423 396 1394 c 2
 477 1243 l 1
 554 1384 l 1
 569 1415 591 1440 630 1440 c 0
 669 1440 699 1408 699 1369 c 1
 700 1349 689 1329 679 1313 c 2
 600 1183 l 1
EndSplineSet
EndChar

StartChar: at
Encoding: 64 64 80
Width: 1638
VWidth: 0
Flags: W
LayerCount: 2
Fore
SplineSet
590 645 m 0
 590 548 649 470 743 470 c 0
 843 470 940 527 964 604 c 1
 1023 820 l 2
 1026 831 1027 840 1027 849 c 0
 1027 917 949 980 864 980 c 0
 706 980 590 796 590 645 c 0
918 132 m 1
 975 133 1030 142 1084 157 c 0
 1087 158 1091 158 1096 158 c 0
 1147 158 1176 123 1176 84 c 0
 1176 41 1151 22 1100 9 c 0
 1000 -16 906 -30 811 -30 c 0
 382 -30 40 240 40 721 c 0
 40 1210 453 1509 895 1509 c 0
 1231 1509 1572 1319 1572 883 c 0
 1572 543 1308 312 1120 312 c 0
 1052 312 985 341 960 409 c 1
 893 336 798 298 694 298 c 0
 498 298 376 451 376 646 c 0
 376 902 566 1173 841 1173 c 0
 941 1173 1029 1134 1081 1046 c 1
 1089 1072 l 2
 1102 1115 1135 1135 1174 1135 c 0
 1213 1135 1251 1110 1251 1062 c 0
 1251 1041 1241 1018 1236 999 c 2
 1153 677 l 1
 1132 604 1114 534 1114 498 c 0
 1114 465 1123 445 1155 445 c 0
 1276 445 1399 634 1399 853 c 0
 1399 1194 1167 1362 895 1362 c 0
 557 1362 220 1112 220 713 c 0
 220 335 474 140 782 121 c 1
 796 121 l 2
 835 121 875 125 918 132 c 1
EndSplineSet
EndChar

StartChar: b
Encoding: 98 98 82
Width: 1255
VWidth: 0
Flags: W
LayerCount: 2
Fore
SplineSet
434 514 m 1
 434 298 483 180 658 180 c 0
 819 180 860 343 860 511 c 0
 860 671 816 829 651 829 c 0
 483 829 433 698 434 514 c 1
433 830 m 1
 505 950 628 1023 784 1023 c 0
 1012 1023 1185 824 1185 512 c 0
 1185 238 1034 -12 789 -12 c 0
 642 -12 514 56 433 197 c 1
 433 70 386 0 267 0 c 0
 155 0 114 70 114 197 c 2
 114 1254 l 2
 114 1381 155 1451 267 1451 c 0
 386 1451 433 1381 433 1254 c 2
 433 830 l 1
EndSplineSet
EndChar

StartChar: backslash
Encoding: 92 92 83
Width: 669
VWidth: 0
Flags: W
LayerCount: 2
Fore
SplineSet
7 1370 m 2
 2 1385 1 1398 1 1409 c 0
 1 1473 48 1504 104 1504 c 0
 166 1504 196 1443 220 1379 c 1
 653 90 l 2
 661 67 668 44 668 25 c 0
 668 -35 612 -70 563 -70 c 0
 503 -70 473 -11 451 54 c 2
 7 1370 l 2
EndSplineSet
EndChar

StartChar: bar
Encoding: 124 124 84
Width: 455
VWidth: 0
Flags: W
LayerCount: 2
Fore
SplineSet
125 1394 m 2
 125 1458 173 1495 228 1495 c 0
 312 1495 330 1418 330 1327 c 2
 330 -116 l 2
 330 -185 307 -252 227 -252 c 0
 142 -252 125 -174 125 -83 c 2
 125 1394 l 2
EndSplineSet
EndChar

StartChar: braceleft
Encoding: 123 123 85
Width: 789
VWidth: 0
Flags: W
LayerCount: 2
Fore
SplineSet
629 -23 m 0
 703 -23 762 -53 762 -147 c 1
 755 -206 725 -248 650 -248 c 2
 500 -248 l 2
 364 -248 240 -164 240 -7 c 2
 240 314 l 2
 240 428 217 489 117 497 c 0
 57 502 1 531 1 614 c 0
 1 678 38 724 117 731 c 0
 209 738 240 787 240 915 c 2
 240 1226 l 2
 240 1343 315 1479 500 1479 c 2
 639 1479 l 2
 697 1479 760 1462 760 1365 c 0
 760 1293 714 1253 639 1253 c 2
 623 1253 l 2
 532 1253 532 1178 532 1038 c 2
 532 877 l 2
 532 740 479 656 354 619 c 1
 349 613 l 1
 397 600 532 546 532 376 c 2
 532 181 l 2
 532 54 529 -23 629 -23 c 0
EndSplineSet
EndChar

StartChar: braceright
Encoding: 125 125 86
Width: 789
VWidth: 0
Flags: W
LayerCount: 2
Fore
SplineSet
169 -23 m 2
 249 -23 255 38 255 158 c 2
 255 376 l 2
 255 534 371 592 439 613 c 1
 431 622 397 633 370 649 c 0
 312 683 255 747 255 853 c 2
 255 1050 l 2
 255 1165 257 1253 164 1253 c 2
 147 1253 l 2
 82 1253 25 1284 25 1368 c 0
 25 1432 61 1479 137 1479 c 2
 292 1479 l 2
 423 1479 547 1393 547 1237 c 2
 547 915 l 2
 547 796 571 739 670 731 c 0
 728 726 786 697 786 614 c 0
 786 554 749 499 683 499 c 1
 578 494 547 444 547 314 c 2
 547 4 l 2
 547 -131 457 -248 292 -248 c 2
 137 -248 l 2
 74 -248 24 -212 24 -136 c 0
 24 -75 58 -23 137 -23 c 2
 169 -23 l 2
EndSplineSet
EndChar

StartChar: bracketleft
Encoding: 91 91 87
Width: 789
VWidth: 0
Flags: W
LayerCount: 2
Fore
SplineSet
169 1305 m 2
 169 1397 239 1451 337 1451 c 2
 585 1451 l 2
 653 1451 696 1400 696 1339 c 0
 696 1267 646 1227 562 1227 c 2
 460 1227 l 1
 460 -20 l 1
 562 -20 l 2
 646 -20 696 -59 696 -131 c 0
 696 -199 651 -242 563 -245 c 1
 337 -245 l 2
 229 -245 169 -198 169 -53 c 2
 169 1305 l 2
EndSplineSet
EndChar

StartChar: bracketright
Encoding: 93 93 88
Width: 789
VWidth: 0
Flags: W
LayerCount: 2
Fore
SplineSet
619 -100 m 2
 619 -191 545 -245 451 -245 c 2
 203 -245 l 1
 128 -238 91 -188 91 -131 c 0
 91 -63 135 -20 226 -20 c 2
 327 -20 l 1
 327 1227 l 1
 226 1227 l 2
 141 1227 92 1266 92 1339 c 0
 92 1407 136 1451 225 1451 c 2
 451 1451 l 2
 555 1451 619 1405 619 1258 c 2
 619 -100 l 2
EndSplineSet
EndChar

StartChar: breve
Encoding: 728 728 89
Width: 569
VWidth: 0
Flags: W
LayerCount: 2
Fore
SplineSet
285 1181 m 1
 144 1181 34 1237 -25 1346 c 0
 -40 1373 -50 1398 -50 1427 c 0
 -50 1479 -5 1507 41 1507 c 0
 83 1507 115 1477 144 1436 c 0
 176 1389 216 1374 285 1374 c 0
 349 1374 390 1387 421 1430 c 0
 449 1469 481 1507 528 1507 c 0
 577 1507 619 1477 619 1421 c 0
 619 1346 548 1265 483 1229 c 0
 426 1197 362 1180 285 1181 c 1
EndSplineSet
EndChar

StartChar: brokenbar
Encoding: 166 166 90
Width: 455
VWidth: 0
Flags: W
LayerCount: 2
Fore
SplineSet
125 1352 m 2
 125 1416 169 1454 228 1454 c 0
 297 1454 330 1401 330 1325 c 2
 330 865 l 2
 330 798 306 735 227 735 c 0
 156 735 125 785 125 865 c 2
 125 1352 l 2
125 611 m 2
 125 671 168 713 228 713 c 0
 297 713 330 662 330 582 c 2
 330 107 l 2
 330 40 307 -23 227 -23 c 0
 156 -23 125 26 125 107 c 2
 125 611 l 2
EndSplineSet
EndChar

StartChar: bullet
Encoding: 8226 8226 91
Width: 1024
VWidth: 0
Flags: W
LayerCount: 2
Fore
SplineSet
882 723 m 0
 882 524 714 362 511 362 c 0
 311 362 142 520 142 723 c 0
 142 913 296 1087 511 1087 c 0
 709 1087 882 930 882 723 c 0
EndSplineSet
EndChar

StartChar: c
Encoding: 99 99 92
Width: 1031
VWidth: 0
Flags: W
LayerCount: 2
Fore
SplineSet
72 507 m 0
 72 808 303 1025 606 1025 c 0
 766 1025 945 973 945 853 c 0
 945 794 903 757 844 757 c 0
 784 757 706 788 642 788 c 0
 506 788 396 695 396 509 c 0
 396 360 475 228 643 228 c 0
 711 228 796 261 860 261 c 0
 916 261 959 224 959 168 c 0
 959 53 779 -12 595 -12 c 0
 330 -12 72 160 72 507 c 0
EndSplineSet
EndChar

StartChar: caron
Encoding: 711 711 93
Width: 569
VWidth: 0
Flags: W
LayerCount: 2
Fore
SplineSet
-33 1433 m 1
 -53 1456 -61 1476 -61 1499 c 0
 -61 1544 -21 1575 27 1575 c 0
 68 1575 109 1549 149 1496 c 2
 283 1317 l 1
 326 1373 367 1427 409 1486 c 0
 445 1537 488 1572 533 1572 c 0
 584 1572 618 1540 618 1492 c 0
 618 1463 593 1429 571 1401 c 2
 418 1208 l 2
 375 1153 335 1122 284 1122 c 1
 236 1121 195 1145 161 1188 c 2
 -33 1433 l 1
EndSplineSet
EndChar

StartChar: cedilla
Encoding: 184 184 95
Width: 569
VWidth: 0
Flags: W
LayerCount: 2
Fore
SplineSet
235 5 m 1
 346 5 l 1
 297 -109 l 1
 323 -107 345 -106 362 -106 c 0
 457 -109 531 -158 531 -272 c 1
 526 -390 406 -443 279 -443 c 0
 189 -443 64 -418 45 -385 c 0
 41 -378 39 -370 39 -359 c 0
 39 -331 55 -306 86 -306 c 0
 89 -306 91 -307 94 -307 c 0
 139 -319 199 -341 250 -341 c 0
 326 -341 356 -310 356 -263 c 0
 356 -212 306 -195 261 -195 c 1
 250 -196 240 -199 229 -200 c 1
 192 -200 170 -186 170 -158 c 0
 170 -148 173 -136 179 -123 c 2
 235 5 l 1
EndSplineSet
EndChar

StartChar: cent
Encoding: 162 162 96
Width: 1063
VWidth: 0
Flags: W
LayerCount: 2
Fore
SplineSet
104 507 m 0
 104 801 309 997 564 1029 c 1
 564 1199 l 2
 564 1256 591 1285 636 1285 c 0
 672 1285 707 1261 707 1214 c 2
 707 1030 l 1
 843 1017 989 955 989 866 c 0
 989 821 954 761 893 761 c 2
 887 761 l 1
 816 776 752 796 688 796 c 0
 545 796 428 717 428 509 c 0
 428 313 529 220 688 220 c 0
 757 220 836 242 904 258 c 1
 909 258 l 2
 969 258 1002 199 1002 155 c 0
 1002 44 818 -5 707 -16 c 1
 707 -200 l 2
 707 -244 674 -271 635 -271 c 0
 596 -271 564 -245 564 -200 c 2
 564 -16 l 1
 307 8 104 195 104 507 c 0
EndSplineSet
EndChar

StartChar: circumflex
Encoding: 710 710 97
Width: 569
VWidth: 0
Flags: W
LayerCount: 2
Fore
SplineSet
161 1526 m 1
 196 1567 238 1591 283 1591 c 0
 323 1591 368 1570 403 1526 c 2
 572 1310 l 2
 596 1279 619 1243 619 1214 c 0
 619 1171 581 1141 537 1141 c 0
 495 1141 456 1162 416 1217 c 2
 283 1396 l 1
 198 1284 109 1138 24 1138 c 0
 -21 1138 -60 1167 -60 1212 c 0
 -60 1235 -42 1268 -18 1299 c 2
 161 1526 l 1
EndSplineSet
EndChar

StartChar: colon
Encoding: 58 58 98
Width: 649
VWidth: 0
Flags: W
LayerCount: 2
Fore
SplineSet
155 889 m 0
 155 976 225 1053 324 1053 c 0
 413 1053 493 985 493 889 c 0
 493 801 423 726 324 726 c 0
 233 726 155 790 155 889 c 0
155 158 m 0
 155 245 225 322 324 322 c 0
 412 322 493 256 493 158 c 0
 493 69 420 -6 324 -6 c 0
 232 -6 155 65 155 158 c 0
EndSplineSet
EndChar

StartChar: comma
Encoding: 44 44 99
Width: 649
VWidth: 0
Flags: W
LayerCount: 2
Fore
SplineSet
341 -223 m 1
 68 -223 l 1
 184 298 l 1
 514 298 l 1
 341 -223 l 1
EndSplineSet
EndChar

StartChar: copyright
Encoding: 169 169 100
Width: 1733
VWidth: 0
Flags: W
LayerCount: 2
Fore
SplineSet
874 67 m 0
 482 67 140 366 140 766 c 0
 140 1138 453 1470 874 1470 c 0
 1259 1470 1605 1170 1605 766 c 0
 1605 382 1276 67 874 67 c 0
304 766 m 0
 304 456 543 207 874 207 c 0
 1182 207 1442 438 1442 766 c 0
 1442 1074 1203 1325 874 1325 c 0
 552 1325 304 1084 304 766 c 0
975 517 m 1
 1012 518 1047 527 1084 546 c 0
 1090 548 1095 549 1100 549 c 0
 1129 549 1151 519 1151 490 c 0
 1151 398 953 371 880 371 c 0
 681 371 494 496 494 768 c 0
 494 1028 672 1160 881 1160 c 0
 968 1160 1149 1128 1149 1050 c 0
 1149 1018 1128 983 1093 983 c 0
 1068 983 1012 1010 978 1018 c 0
 950 1024 923 1027 897 1027 c 0
 766 1027 661 957 661 770 c 0
 661 600 760 506 891 506 c 0
 918 506 946 510 975 517 c 1
EndSplineSet
EndChar

StartChar: currency
Encoding: 164 164 101
Width: 1258
VWidth: 0
Flags: W
LayerCount: 2
Fore
SplineSet
636 198 m 0
 536 198 454 221 386 264 c 1
 323 200 l 2
 296 172 278 158 247 158 c 1
 205 161 185 199 185 236 c 1
 187 251 194 264 205 275 c 2
 285 355 l 1
 225 428 199 519 199 614 c 0
 199 705 225 793 281 868 c 1
 219 931 l 2
 198 952 185 967 185 998 c 0
 185 1031 219 1061 254 1061 c 0
 277 1061 295 1044 315 1027 c 1
 380 961 l 1
 448 1005 531 1033 636 1033 c 0
 740 1033 824 1008 892 961 c 1
 957 1027 l 2
 976 1046 1003 1059 1022 1059 c 0
 1054 1059 1085 1031 1088 998 c 1
 1088 967 1074 951 1054 931 c 2
 991 868 l 1
 1047 796 1074 703 1074 614 c 0
 1074 518 1046 430 987 354 c 1
 1046 296 l 2
 1073 269 1087 251 1088 220 c 1
 1083 176 1047 158 1010 158 c 1
 991 161 972 176 957 193 c 1
 885 264 l 1
 818 220 735 198 636 198 c 0
636 907 m 0
 444 907 351 758 351 614 c 0
 351 467 447 322 636 322 c 0
 817 322 921 458 921 614 c 0
 921 759 824 907 636 907 c 0
EndSplineSet
EndChar

StartChar: d
Encoding: 100 100 102
Width: 1258
VWidth: 0
Flags: W
LayerCount: 2
Fore
SplineSet
613 829 m 0
 453 829 403 685 403 511 c 0
 403 360 437 178 605 178 c 0
 770 178 828 284 828 514 c 0
 828 703 775 829 613 829 c 0
831 1255 m 2
 831 1382 872 1452 984 1452 c 0
 1103 1452 1150 1382 1150 1255 c 2
 1150 197 l 2
 1150 70 1103 0 984 0 c 0
 872 0 831 70 831 197 c 1
 748 49 631 -12 474 -12 c 0
 231 -12 79 226 79 512 c 0
 79 816 240 1023 481 1023 c 0
 629 1023 754 954 831 830 c 1
 831 1255 l 2
EndSplineSet
EndChar

StartChar: dagger
Encoding: 8224 8224 103
Width: 1299
VWidth: 0
Flags: W
LayerCount: 2
Fore
SplineSet
790 916 m 1
 790 210 l 2
 790 98 759 3 649 3 c 0
 560 3 509 62 509 175 c 2
 509 916 l 1
 315 916 l 2
 238 916 169 944 169 1030 c 0
 169 1105 216 1147 315 1147 c 2
 509 1147 l 1
 509 1273 l 2
 509 1379 537 1476 649 1476 c 0
 737 1476 790 1415 790 1306 c 2
 790 1147 l 1
 981 1147 l 2
 1057 1147 1129 1120 1129 1033 c 0
 1129 952 1073 916 981 916 c 2
 790 916 l 1
EndSplineSet
EndChar

StartChar: daggerdbl
Encoding: 8225 8225 104
Width: 1299
VWidth: 0
Flags: W
LayerCount: 2
Fore
SplineSet
784 297 m 1
 784 198 l 2
 784 94 753 2 649 2 c 0
 556 2 514 67 514 184 c 2
 514 297 l 1
 325 297 l 2
 244 297 169 317 169 405 c 0
 169 477 219 516 311 516 c 2
 514 516 l 1
 514 960 l 1
 311 960 l 2
 235 960 169 984 169 1068 c 0
 169 1140 219 1179 311 1179 c 2
 514 1179 l 1
 514 1278 l 2
 514 1377 537 1476 649 1476 c 0
 741 1476 784 1410 784 1293 c 2
 784 1179 l 1
 986 1179 l 2
 1060 1179 1129 1153 1129 1071 c 0
 1129 998 1075 960 986 960 c 2
 784 960 l 1
 784 516 l 1
 986 516 l 2
 1060 516 1129 490 1129 408 c 0
 1129 335 1075 297 986 297 c 2
 784 297 l 1
EndSplineSet
EndChar

StartChar: degree
Encoding: 176 176 105
Width: 819
VWidth: 0
Flags: W
LayerCount: 2
Fore
SplineSet
709 1164 m 0
 709 1004 575 870 410 870 c 0
 247 870 110 996 110 1164 c 0
 110 1319 237 1457 410 1457 c 0
 567 1457 709 1331 709 1164 c 0
249 1164 m 0
 249 1077 317 1007 410 1007 c 0
 493 1007 570 1068 570 1164 c 0
 570 1246 504 1321 409 1321 c 0
 317 1321 249 1251 249 1164 c 0
EndSplineSet
EndChar

StartChar: dieresis
Encoding: 168 168 106
Width: 569
VWidth: 0
Flags: W
LayerCount: 2
Fore
SplineSet
55 1171 m 0
 -21 1171 -94 1229 -94 1314 c 0
 -94 1392 -28 1458 55 1458 c 0
 134 1458 203 1395 203 1314 c 0
 203 1233 134 1171 55 1171 c 0
515 1171 m 0
 438 1171 366 1229 366 1314 c 0
 366 1390 429 1458 515 1458 c 0
 591 1458 663 1397 663 1314 c 0
 663 1233 594 1171 515 1171 c 0
EndSplineSet
EndChar

StartChar: divide
Encoding: 247 247 107
Width: 1287
VWidth: 0
Flags: W
LayerCount: 2
Fore
SplineSet
198 414 m 2
 133 414 101 463 101 516 c 0
 101 585 143 618 238 618 c 2
 1080 618 l 2
 1148 618 1196 589 1196 516 c 0
 1196 441 1147 414 1060 414 c 2
 198 414 l 2
501 89 m 0
 501 159 556 226 644 226 c 0
 722 226 786 165 786 89 c 0
 786 12 723 -49 644 -49 c 0
 564 -49 501 10 501 89 c 0
501 945 m 0
 501 1016 556 1081 644 1081 c 0
 720 1081 786 1025 786 945 c 0
 786 868 723 807 644 807 c 0
 567 807 501 865 501 945 c 0
EndSplineSet
EndChar

StartChar: dollar
Encoding: 36 36 108
Width: 1371
VWidth: 0
Flags: W
LayerCount: 2
Fore
SplineSet
597 -39 m 1
 382 -31 151 39 113 113 c 0
 102 133 97 152 97 172 c 0
 97 235 143 298 215 298 c 0
 255 298 294 279 345 264 c 0
 429 239 536 219 656 219 c 0
 774 219 907 265 907 382 c 0
 907 486 811 528 695 566 c 1
 552 608 l 1
 467 633 l 2
 420 647 376 664 351 673 c 0
 172 736 81 853 81 1037 c 0
 81 1265 269 1436 597 1460 c 1
 597 1536 l 2
 597 1588 625 1614 664 1614 c 0
 699 1614 731 1590 731 1547 c 2
 731 1461 l 1
 939 1450 1188 1417 1188 1265 c 0
 1188 1204 1141 1156 1070 1156 c 0
 1063 1156 1056 1156 1049 1157 c 0
 974 1170 921 1187 769 1203 c 0
 737 1206 706 1209 675 1209 c 0
 557 1209 431 1166 431 1068 c 0
 431 951 564 908 690 873 c 2
 791 845 l 1
 1065 760 1263 681 1263 418 c 0
 1263 152 1055 -17 731 -38 c 1
 731 -122 l 2
 731 -165 718 -211 663 -211 c 0
 628 -211 597 -189 597 -144 c 2
 597 -39 l 1
EndSplineSet
EndChar

StartChar: dotaccent
Encoding: 729 729 109
Width: 649
VWidth: 0
Flags: W
LayerCount: 2
Fore
SplineSet
116 1331 m 0
 116 1419 186 1494 284 1494 c 0
 369 1494 454 1431 454 1331 c 0
 454 1240 381 1166 284 1166 c 0
 191 1166 116 1236 116 1331 c 0
EndSplineSet
EndChar

StartChar: dotlessi
Encoding: 305 305 110
Width: 554
VWidth: 0
Flags: W
LayerCount: 2
Fore
SplineSet
117 856 m 2
 117 956 191 1013 278 1013 c 0
 384 1013 437 941 437 798 c 2
 437 214 l 2
 437 94 394 0 276 0 c 0
 168 0 117 71 117 214 c 2
 117 856 l 2
EndSplineSet
EndChar

StartChar: e
Encoding: 101 101 111
Width: 1187
VWidth: 0
Flags: W
LayerCount: 2
Fore
SplineSet
1110 536 m 0
 1110 481 1072 455 1008 455 c 2
 389 455 l 1
 396 294 479 201 655 201 c 0
 769 201 852 233 956 268 c 0
 965 271 972 273 979 273 c 0
 1023 273 1052 233 1052 188 c 0
 1052 175 1050 162 1045 150 c 0
 991 21 782 -12 618 -12 c 0
 310 -12 75 164 75 509 c 0
 75 797 299 1023 613 1023 c 0
 953 1023 1107 797 1110 536 c 0
843 597 m 1
 835 738 761 843 614 843 c 0
 480 843 396 732 388 597 c 1
 843 597 l 1
EndSplineSet
EndChar

StartChar: eight
Encoding: 56 56 116
Width: 1299
VWidth: 0
Flags: W
LayerCount: 2
Fore
SplineSet
372 743 m 1
 209 767 100 884 100 1060 c 0
 100 1312 314 1467 648 1467 c 0
 974 1467 1201 1323 1201 1060 c 0
 1201 883 1090 778 926 743 c 1
 926 741 l 1
 1118 694 1227 579 1227 388 c 0
 1227 145 1025 -25 648 -25 c 0
 264 -25 72 149 72 388 c 0
 72 558 171 699 372 739 c 1
 372 743 l 1
439 1046 m 0
 439 912 526 854 650 854 c 0
 775 854 861 911 861 1046 c 0
 861 1184 761 1239 650 1239 c 0
 538 1239 439 1183 439 1046 c 0
423 420 m 0
 423 272 523 209 650 209 c 0
 762 209 876 264 876 420 c 0
 876 562 778 632 650 632 c 0
 528 632 423 570 423 420 c 0
EndSplineSet
EndChar

StartChar: ellipsis
Encoding: 8230 8230 117
Width: 1948
VWidth: 0
Flags: W
LayerCount: 2
Fore
SplineSet
155 158 m 0
 155 245 225 322 324 322 c 0
 412 322 493 256 493 158 c 0
 493 69 420 -6 324 -6 c 0
 232 -6 155 65 155 158 c 0
804 158 m 0
 804 245 874 322 973 322 c 0
 1058 322 1143 259 1143 158 c 0
 1143 69 1071 -6 973 -6 c 0
 881 -6 804 65 804 158 c 0
1454 158 m 0
 1454 245 1524 322 1623 322 c 0
 1711 322 1792 256 1792 158 c 0
 1792 69 1719 -6 1623 -6 c 0
 1527 -6 1454 65 1454 158 c 0
EndSplineSet
EndChar

StartChar: emdash
Encoding: 8212 8212 118
Width: 2048
VWidth: 0
Flags: W
LayerCount: 2
Fore
SplineSet
108 417 m 2
 35 417 0 476 0 537 c 0
 0 633 83 656 183 656 c 2
 1901 656 l 2
 1988 656 2046 625 2046 537 c 0
 2046 438 1963 417 1863 417 c 2
 108 417 l 2
EndSplineSet
EndChar

StartChar: endash
Encoding: 8211 8211 119
Width: 1024
VWidth: 0
Flags: W
LayerCount: 2
Fore
SplineSet
112 417 m 2
 44 417 1 471 1 537 c 0
 1 618 55 656 151 656 c 2
 872 656 l 2
 948 656 1021 635 1021 536 c 0
 1021 457 975 417 872 417 c 2
 112 417 l 2
EndSplineSet
EndChar

StartChar: equal
Encoding: 61 61 120
Width: 1287
VWidth: 0
Flags: W
LayerCount: 2
Fore
SplineSet
231 184 m 2
 178 184 128 224 128 284 c 0
 128 362 197 387 269 387 c 2
 1036 387 l 2
 1087 387 1158 365 1158 284 c 0
 1158 205 1087 184 1017 184 c 2
 231 184 l 2
231 627 m 2
 176 627 128 669 128 728 c 0
 128 806 197 831 271 831 c 2
 1016 831 l 2
 1080 831 1158 813 1158 728 c 0
 1158 651 1088 627 1016 627 c 2
 231 627 l 2
EndSplineSet
EndChar

StartChar: eth
Encoding: 240 240 122
Width: 1299
VWidth: 0
Flags: W
LayerCount: 2
Fore
SplineSet
585 1067 m 2
 532 1067 507 1104 507 1143 c 0
 507 1182 532 1220 585 1220 c 2
 764 1220 l 1
 723 1309 649 1390 649 1447 c 0
 649 1520 721 1581 798 1581 c 0
 904 1581 993 1474 1105 1220 c 1
 1261 1220 l 2
 1315 1220 1368 1207 1368 1143 c 0
 1368 1086 1329 1067 1260 1067 c 2
 1163 1067 l 1
 1202 930 1225 789 1225 656 c 0
 1225 261 1054 -36 628 -36 c 0
 294 -36 74 161 74 466 c 0
 74 741 259 921 531 921 c 0
 668 921 801 879 878 757 c 1
 878 758 879 759 880 760 c 1
 879 849 864 958 829 1067 c 1
 585 1067 l 2
629 197 m 0
 762 197 854 294 854 451 c 0
 854 620 769 718 616 718 c 0
 471 718 403 612 403 455 c 0
 403 288 482 197 629 197 c 0
EndSplineSet
EndChar

StartChar: exclam
Encoding: 33 33 123
Width: 776
VWidth: 0
Flags: W
LayerCount: 2
Fore
SplineSet
386 255 m 0
 487 255 560 197 560 128 c 0
 560 53 486 0 386 0 c 0
 280 0 211 56 211 128 c 0
 211 195 277 255 386 255 c 0
386 394 m 0
 285 394 243 490 238 618 c 2
 205 1323 l 2
 204 1326 204 1332 204 1340 c 0
 204 1427 291 1479 385 1479 c 0
 479 1479 566 1427 566 1340 c 0
 566 1332 566 1326 565 1323 c 2
 532 618 l 2
 527 490 487 394 386 394 c 0
EndSplineSet
EndChar

StartChar: f
Encoding: 102 102 125
Width: 754
VWidth: 0
Flags: W
LayerCount: 2
Fore
SplineSet
517 197 m 2
 517 70 470 0 351 0 c 0
 239 0 198 70 198 197 c 2
 197 824 l 1
 147 824 l 2
 75 824 16 846 16 917 c 0
 16 968 54 1010 134 1010 c 2
 197 1010 l 1
 197 1074 l 2
 197 1354 304 1468 540 1468 c 0
 662 1468 790 1457 790 1348 c 0
 790 1288 753 1249 686 1249 c 0
 670 1249 654 1250 639 1250 c 0
 539 1250 517 1207 517 1036 c 2
 517 1010 l 1
 613 1010 l 2
 672 1010 729 983 729 917 c 0
 729 854 682 824 601 824 c 2
 517 824 l 1
 517 197 l 2
EndSplineSet
EndChar

StartChar: fi
Encoding: 64257 64257 126
Width: 1296
VWidth: 0
Flags: W
LayerCount: 2
Fore
SplineSet
859 819 m 1
 497 819 l 1
 497 214 l 2
 497 96 454 1 337 1 c 0
 228 1 178 73 178 214 c 2
 178 819 l 1
 132 819 l 2
 47 819 -6 846 -6 914 c 0
 -6 969 31 1009 115 1009 c 2
 178 1009 l 1
 178 1056 l 2
 178 1336 268 1468 520 1468 c 0
 633 1468 763 1461 763 1347 c 0
 763 1267 699 1248 622 1248 c 0
 512 1248 497 1218 497 1036 c 2
 497 1009 l 1
 977 1009 l 2
 1092 1009 1179 986 1179 794 c 2
 1179 234 l 2
 1179 110 1158 3 1022 3 c 0
 907 3 859 76 859 233 c 2
 859 819 l 1
1192 1330 m 0
 1192 1241 1106 1195 1018 1195 c 0
 925 1195 844 1245 844 1330 c 0
 844 1407 919 1464 1019 1464 c 0
 1108 1464 1192 1415 1192 1330 c 0
EndSplineSet
EndChar

StartChar: five
Encoding: 53 53 127
Width: 1299
VWidth: 0
Flags: W
LayerCount: 2
Fore
SplineSet
160 1288 m 2
 160 1426 227 1453 382 1453 c 2
 1025 1453 l 2
 1094 1453 1152 1417 1152 1333 c 0
 1152 1250 1099 1213 1006 1213 c 2
 458 1213 l 1
 448 824 l 1
 535 906 643 947 772 947 c 0
 1025 947 1211 760 1211 457 c 0
 1211 154 952 -26 631 -26 c 0
 440 -26 208 42 171 188 c 1
 163 205 159 221 159 237 c 0
 159 289 198 340 254 340 c 0
 304 340 370 266 456 236 c 0
 503 219 554 211 606 211 c 0
 747 211 854 293 854 472 c 0
 854 640 772 736 652 736 c 0
 447 736 468 546 297 546 c 0
 213 546 160 599 160 712 c 2
 160 1288 l 2
EndSplineSet
EndChar

StartChar: fl
Encoding: 64258 64258 128
Width: 1296
VWidth: 0
Flags: W
LayerCount: 2
Fore
SplineSet
497 819 m 1
 497 214 l 2
 497 96 454 1 337 1 c 0
 236 1 178 66 178 195 c 2
 178 819 l 1
 132 819 l 2
 47 819 -6 846 -6 914 c 0
 -6 969 31 1009 115 1009 c 2
 178 1009 l 1
 178 1074 l 2
 178 1349 330 1461 509 1461 c 0
 680 1461 795 1392 828 1338 c 1
 847 1409 907 1450 982 1450 c 0
 1081 1450 1141 1387 1141 1256 c 2
 1141 233 l 2
 1141 113 1125 3 985 3 c 0
 872 3 821 76 821 232 c 2
 821 1282 l 1
 624 1282 l 2
 523 1282 497 1225 497 1052 c 2
 497 1009 l 1
 567 1009 l 2
 647 1009 704 982 704 914 c 0
 704 845 646 819 551 819 c 2
 497 819 l 1
EndSplineSet
EndChar

StartChar: florin
Encoding: 402 402 129
Width: 1299
VWidth: 0
Flags: W
LayerCount: 2
Fore
SplineSet
734 679 m 1
 697 490 660 287 613 74 c 0
 514 -372 348 -542 114 -542 c 0
 17 -542 -30 -507 -30 -454 c 0
 -30 -381 39 -341 116 -336 c 0
 292 -324 346 -89 490 679 c 1
 418 679 l 2
 326 679 245 708 245 805 c 0
 245 861 288 919 362 919 c 2
 529 919 l 1
 593 1384 800 1622 1068 1622 c 0
 1160 1622 1203 1589 1203 1538 c 0
 1203 1467 1135 1437 1039 1428 c 0
 903 1416 838 1257 774 919 c 1
 947 919 l 2
 1020 919 1065 862 1065 799 c 0
 1065 719 1008 679 916 679 c 2
 734 679 l 1
EndSplineSet
EndChar

StartChar: four
Encoding: 52 52 130
Width: 1299
VWidth: 0
Flags: W
LayerCount: 2
Fore
SplineSet
505 1279 m 1
 580 1424 678 1465 809 1465 c 0
 980 1465 1053 1373 1053 1144 c 2
 1053 551 l 1
 1099 551 l 2
 1181 551 1256 521 1256 428 c 0
 1256 347 1202 305 1099 305 c 2
 1052 305 l 1
 1052 185 l 1
 1049 88 1012 -8 884 -8 c 0
 767 -8 716 72 713 221 c 1
 713 305 l 1
 209 305 l 2
 102 305 30 343 30 436 c 0
 30 463 36 493 55 524 c 2
 505 1279 l 1
338 551 m 1
 713 551 l 1
 713 1196 l 1
 338 551 l 1
EndSplineSet
EndChar

StartChar: foursuperior
Encoding: 8308 8308 131
Width: 783
VWidth: 0
Flags: W
LayerCount: 2
Fore
SplineSet
320 1342 m 1
 365 1429 411 1459 487 1459 c 0
 579 1459 604 1387 604 1259 c 2
 604 913 l 1
 643 913 l 2
 686 913 720 896 720 856 c 0
 720 825 697 799 654 799 c 2
 604 799 l 1
 604 741 l 2
 604 677 583 624 523 624 c 0
 460 624 442 679 442 755 c 2
 442 799 l 1
 161 799 l 2
 100 799 47 809 47 864 c 0
 47 881 52 896 61 910 c 2
 320 1342 l 1
213 909 m 1
 442 909 l 1
 442 1311 l 1
 213 909 l 1
EndSplineSet
EndChar

StartChar: fraction
Encoding: 8260 8260 132
Width: 669
VWidth: 0
Flags: W
LayerCount: 2
Fore
SplineSet
199 13 m 2
 182 -38 142 -55 105 -55 c 0
 57 -55 0 -22 0 38 c 0
 0 65 15 102 26 135 c 2
 449 1395 l 1
 470 1461 503 1521 564 1521 c 0
 619 1521 668 1489 668 1424 c 0
 668 1397 653 1361 643 1330 c 2
 199 13 l 2
EndSplineSet
EndChar

StartChar: g
Encoding: 103 103 133
Width: 1258
VWidth: 0
Flags: W
LayerCount: 2
Fore
SplineSet
843 193 m 1
 772 61 632 7 486 7 c 0
 241 7 73 186 73 497 c 0
 73 790 225 1023 492 1023 c 0
 644 1023 762 968 847 835 c 1
 847 861 l 2
 847 957 903 1006 996 1006 c 0
 1109 1006 1145 932 1145 800 c 2
 1145 130 l 2
 1145 -196 987 -385 618 -385 c 0
 363 -385 209 -340 209 -249 c 0
 209 -193 238 -144 317 -144 c 0
 402 -144 487 -169 610 -169 c 0
 756 -169 843 -117 843 74 c 2
 843 193 l 1
843 504 m 0
 843 699 793 829 625 829 c 0
 460 829 415 686 415 506 c 0
 415 302 489 199 626 199 c 1
 753 202 843 289 843 504 c 0
EndSplineSet
EndChar

StartChar: germandbls
Encoding: 223 223 134
Width: 1410
VWidth: 0
Flags: W
LayerCount: 2
Fore
SplineSet
586 170 m 1
 579 183 577 197 577 210 c 0
 577 267 631 316 689 316 c 0
 724 316 748 300 778 257 c 0
 813 206 859 174 932 174 c 0
 1008 174 1064 217 1064 312 c 0
 1064 443 847 513 743 596 c 0
 682 645 638 702 638 786 c 0
 638 937 781 983 852 1085 c 0
 866 1106 875 1126 875 1152 c 0
 875 1252 779 1300 680 1300 c 0
 512 1300 445 1157 442 973 c 1
 442 230 l 2
 442 98 394 3 275 3 c 0
 168 3 123 69 123 193 c 2
 123 899 l 2
 123 1242 233 1486 705 1486 c 0
 949 1486 1189 1370 1189 1150 c 0
 1189 1037 1096 963 1040 910 c 0
 999 871 962 837 962 802 c 0
 962 702 1154 659 1263 560 c 0
 1323 505 1362 435 1362 330 c 0
 1362 100 1153 -21 943 -21 c 0
 787 -21 642 37 586 170 c 1
EndSplineSet
EndChar

StartChar: grave
Encoding: 96 96 135
Width: 569
VWidth: 0
Flags: W
LayerCount: 2
Fore
SplineSet
73 1404 m 2
 49 1424 39 1447 39 1474 c 0
 39 1541 111 1601 178 1601 c 0
 221 1601 259 1568 292 1520 c 2
 484 1240 l 2
 495 1223 507 1205 507 1189 c 0
 507 1152 478 1118 442 1118 c 0
 421 1118 387 1132 367 1152 c 1
 73 1404 l 2
EndSplineSet
EndChar

StartChar: greater
Encoding: 62 62 136
Width: 1287
VWidth: 0
Flags: W
LayerCount: 2
Fore
SplineSet
1093 621 m 2
 1149 597 1178 551 1178 506 c 0
 1178 446 1142 409 1066 378 c 2
 275 53 l 2
 253 44 232 37 212 37 c 0
 159 37 122 84 122 132 c 0
 122 167 137 197 180 215 c 2
 895 506 l 1
 655 606 417 702 178 806 c 0
 138 823 121 854 121 887 c 0
 121 932 154 982 211 982 c 0
 238 982 271 967 299 955 c 2
 1093 621 l 2
EndSplineSet
EndChar

StartChar: greaterequal
Encoding: 8805 8805 137
Width: 1236
VWidth: 0
Flags: W
LayerCount: 2
Fore
SplineSet
232 322 m 1
 217 318 205 317 194 317 c 0
 141 317 102 362 102 413 c 0
 102 462 149 490 212 516 c 0
 436 606 652 693 876 785 c 1
 652 877 432 971 208 1064 c 0
 151 1088 101 1112 101 1166 c 0
 101 1211 137 1261 192 1261 c 0
 217 1261 251 1246 280 1234 c 2
 1049 911 l 2
 1116 883 1160 845 1160 784 c 0
 1160 727 1123 689 1048 658 c 2
 232 322 l 1
201 -10 m 2
 144 -10 120 37 120 77 c 0
 120 138 161 163 237 163 c 2
 1027 163 l 2
 1082 163 1128 141 1128 76 c 0
 1128 9 1080 -10 1009 -10 c 2
 201 -10 l 2
EndSplineSet
EndChar

StartChar: guillemotleft
Encoding: 171 171 138
Width: 1238
VWidth: 0
Flags: W
LayerCount: 2
Fore
SplineSet
363 972 m 1
 399 1029 442 1052 489 1052 c 0
 550 1052 601 1006 601 946 c 0
 601 926 589 899 578 875 c 2
 423 529 l 1
 479 406 531 286 586 165 c 0
 593 149 599 133 602 117 c 1
 602 50 555 5 483 5 c 0
 428 5 387 45 346 115 c 2
 105 529 l 1
 363 972 l 1
865 972 m 1
 900 1028 945 1052 990 1052 c 0
 1051 1052 1103 1006 1103 946 c 0
 1103 926 1091 899 1080 875 c 2
 925 529 l 1
 1088 165 l 2
 1095 149 1101 133 1104 117 c 1
 1104 49 1056 5 984 5 c 1
 931 4 888 44 847 115 c 2
 606 529 l 1
 865 972 l 1
EndSplineSet
EndChar

StartChar: guillemotright
Encoding: 187 187 139
Width: 1238
VWidth: 0
Flags: W
LayerCount: 2
Fore
SplineSet
1129 529 m 1
 887 115 l 1
 843 43 805 5 750 5 c 0
 688 5 633 44 633 110 c 0
 633 132 644 158 655 182 c 2
 811 529 l 1
 655 875 l 2
 644 900 631 925 631 949 c 0
 631 1009 686 1051 747 1051 c 0
 802 1051 843 1014 887 942 c 1
 1129 529 l 1
628 529 m 1
 386 115 l 1
 342 43 302 5 249 5 c 0
 189 5 131 42 131 109 c 0
 131 132 142 156 153 180 c 2
 309 529 l 1
 153 877 l 2
 142 900 131 923 131 947 c 0
 131 1009 183 1051 246 1051 c 0
 300 1051 343 1014 386 942 c 2
 628 529 l 1
EndSplineSet
EndChar

StartChar: guilsinglleft
Encoding: 8249 8249 140
Width: 649
VWidth: 0
Flags: W
LayerCount: 2
Fore
SplineSet
322 972 m 1
 358 1031 400 1052 447 1052 c 0
 505 1052 559 1009 559 949 c 0
 559 926 547 898 537 875 c 2
 382 529 l 1
 545 165 l 2
 553 146 561 126 561 107 c 0
 561 44 503 5 441 5 c 0
 386 5 348 44 305 115 c 1
 63 529 l 1
 322 972 l 1
EndSplineSet
EndChar

StartChar: guilsinglright
Encoding: 8250 8250 141
Width: 649
VWidth: 0
Flags: W
LayerCount: 2
Fore
SplineSet
590 529 m 1
 350 118 l 2
 307 45 266 5 211 5 c 0
 147 5 93 42 93 109 c 0
 93 132 105 158 116 182 c 2
 271 529 l 1
 116 875 l 2
 105 899 93 924 93 947 c 0
 93 1007 138 1051 207 1051 c 0
 263 1051 306 1015 350 939 c 2
 590 529 l 1
EndSplineSet
EndChar

StartChar: h
Encoding: 104 104 142
Width: 1238
VWidth: 0
Flags: W
LayerCount: 2
Fore
SplineSet
435 804 m 1
 483 933 618 1023 786 1023 c 0
 958 1023 1122 899 1122 649 c 2
 1121 197 l 2
 1121 70 1074 0 955 0 c 0
 843 0 802 70 802 197 c 2
 802 635 l 2
 802 760 732 825 640 825 c 0
 531 825 436 754 436 608 c 2
 436 197 l 2
 436 70 389 0 270 0 c 0
 158 0 117 70 117 197 c 2
 116 1255 l 2
 116 1382 157 1452 269 1452 c 0
 388 1452 435 1382 435 1255 c 2
 435 804 l 1
EndSplineSet
EndChar

StartChar: hungarumlaut
Encoding: 733 733 143
Width: 569
VWidth: 0
Flags: W
LayerCount: 2
Fore
SplineSet
456 1139 m 2
 436 1122 425 1118 402 1118 c 0
 359 1118 332 1149 332 1189 c 0
 332 1207 342 1221 354 1240 c 0
 418 1336 487 1433 555 1530 c 1
 582 1573 621 1601 661 1601 c 0
 727 1601 800 1541 800 1475 c 0
 800 1444 783 1419 750 1391 c 2
 456 1139 l 2
9 1139 m 2
 -10 1123 -27 1119 -44 1119 c 0
 -79 1119 -116 1144 -116 1184 c 0
 -116 1204 -104 1221 -91 1240 c 2
 107 1528 l 2
 138 1573 175 1601 215 1601 c 0
 283 1601 353 1542 353 1476 c 0
 353 1440 334 1418 303 1391 c 2
 9 1139 l 2
EndSplineSet
EndChar

StartChar: hyphen
Encoding: 45 45 144
Width: 709
VWidth: 0
Flags: W
LayerCount: 2
Fore
SplineSet
166 417 m 2
 101 417 44 468 44 536 c 0
 44 613 104 656 189 656 c 2
 520 656 l 2
 579 656 665 631 665 536 c 0
 665 452 594 417 520 417 c 2
 166 417 l 2
EndSplineSet
EndChar

StartChar: i
Encoding: 105 105 145
Width: 554
VWidth: 0
Flags: W
LayerCount: 2
Fore
SplineSet
451 1362 m 0
 451 1273 365 1227 277 1227 c 0
 184 1227 103 1277 103 1362 c 0
 103 1439 178 1496 278 1496 c 0
 367 1496 451 1447 451 1362 c 0
436 197 m 2
 436 70 389 0 270 0 c 0
 158 0 117 70 117 197 c 2
 117 809 l 2
 117 936 158 1006 270 1006 c 0
 389 1006 436 936 436 809 c 2
 436 197 l 2
EndSplineSet
EndChar

StartChar: increment
Encoding: 916 916 150
AltUni2: 002206.ffffffff.0
Width: 1351
VWidth: 0
Flags: W
LayerCount: 2
Fore
SplineSet
1247 183 m 1
 106 183 l 1
 542 1449 l 2
 568 1525 600 1587 680 1587 c 0
 750 1587 783 1525 813 1449 c 1
 1247 183 l 1
677 1285 m 1
 670 1285 l 1
 356 334 l 1
 993 334 l 1
 677 1285 l 1
EndSplineSet
EndChar

StartChar: infinity
Encoding: 8734 8734 151
Width: 1680
VWidth: 0
Flags: W
LayerCount: 2
Fore
SplineSet
1578 606 m 2
 1578 369 1405 233 1229 233 c 0
 1105 233 984 287 840 474 c 1
 728 341 617 233 443 233 c 0
 260 233 100 381 100 594 c 0
 100 809 254 964 462 964 c 0
 621 964 737 869 852 728 c 1
 938 824 1043 964 1235 964 c 0
 1427 964 1578 825 1578 609 c 2
 1578 606 l 2
465 386 m 2
 585 386 676 496 755 588 c 1
 675 697 598 814 455 814 c 0
 338 814 260 724 260 595 c 0
 260 488 337 386 462 386 c 2
 465 386 l 2
1222 814 m 2
 1091 814 993 674 929 602 c 1
 1051 445 1128 386 1233 386 c 0
 1342 386 1418 488 1418 595 c 0
 1418 707 1350 814 1226 814 c 2
 1222 814 l 2
EndSplineSet
EndChar

StartChar: integral
Encoding: 8747 8747 152
Width: 853
VWidth: 0
Flags: W
LayerCount: 2
Fore
SplineSet
689 1811 m 0
 787 1811 834 1765 834 1713 c 0
 834 1642 775 1625 686 1613 c 0
 571 1598 538 1477 538 1211 c 0
 538 866 572 572 572 208 c 0
 572 -261 394 -363 182 -363 c 1
 83 -356 39 -308 39 -256 c 0
 39 -199 86 -157 159 -157 c 0
 266 -157 328 -81 328 210 c 0
 328 581 292 880 292 1240 c 0
 292 1631 430 1811 689 1811 c 0
EndSplineSet
EndChar

StartChar: j
Encoding: 106 106 153
Width: 568
VWidth: 0
Flags: W
LayerCount: 2
Fore
SplineSet
450 -17 m 2
 450 -276 380 -385 119 -385 c 0
 -28 -385 -62 -331 -62 -272 c 0
 -62 -207 -31 -169 32 -169 c 1
 124 -166 131 -141 131 26 c 2
 131 809 l 2
 131 936 172 1006 284 1006 c 0
 403 1006 450 936 450 809 c 2
 450 -17 l 2
465 1362 m 0
 465 1272 376 1227 291 1227 c 0
 198 1227 117 1277 117 1362 c 0
 117 1439 192 1496 292 1496 c 0
 379 1496 465 1447 465 1362 c 0
EndSplineSet
EndChar

StartChar: k
Encoding: 107 107 154
Width: 1111
VWidth: 0
Flags: W
LayerCount: 2
Fore
SplineSet
442 611 m 1
 535 710 628 806 720 907 c 0
 777 970 838 1017 896 1017 c 0
 968 1017 1041 956 1041 889 c 0
 1041 849 1009 818 978 789 c 0
 899 714 820 644 740 568 c 1
 1003 249 l 2
 1036 209 1069 168 1069 131 c 0
 1069 62 1002 5 933 5 c 0
 875 5 782 66 729 145 c 1
 442 531 l 1
 442 197 l 2
 442 70 395 0 276 0 c 0
 164 0 123 70 123 197 c 2
 123 1255 l 2
 123 1382 164 1452 276 1452 c 0
 395 1452 442 1382 442 1255 c 2
 442 611 l 1
EndSplineSet
EndChar

StartChar: l
Encoding: 108 108 155
Width: 554
VWidth: 0
Flags: W
LayerCount: 2
Fore
SplineSet
436 197 m 2
 436 70 389 0 270 0 c 0
 158 0 117 70 117 197 c 2
 117 1254 l 2
 117 1381 158 1451 270 1451 c 0
 389 1451 436 1381 436 1254 c 2
 436 197 l 2
EndSplineSet
EndChar

StartChar: less
Encoding: 60 60 156
Width: 1287
VWidth: 0
Flags: W
LayerCount: 2
Fore
SplineSet
186 391 m 2
 130 414 100 458 100 506 c 0
 100 563 136 600 212 633 c 1
 978 948 l 2
 1005 959 1038 973 1061 973 c 0
 1117 973 1158 927 1158 878 c 0
 1158 825 1109 800 1050 776 c 2
 383 506 l 1
 607 413 828 319 1052 226 c 0
 1111 202 1158 173 1158 123 c 0
 1158 72 1119 29 1066 29 c 0
 1042 29 1008 42 981 55 c 1
 186 391 l 2
EndSplineSet
EndChar

StartChar: lessequal
Encoding: 8804 8804 157
Width: 1236
VWidth: 0
Flags: W
LayerCount: 2
Fore
SplineSet
155 673 m 2
 98 697 69 740 69 788 c 0
 69 847 105 884 181 915 c 2
 947 1230 l 2
 974 1241 1010 1256 1033 1256 c 0
 1084 1256 1127 1212 1127 1160 c 0
 1127 1109 1079 1082 1020 1058 c 2
 352 787 l 1
 1021 508 l 2
 1078 484 1127 455 1127 406 c 0
 1127 356 1088 311 1035 311 c 0
 1011 311 977 326 950 337 c 2
 155 673 l 2
173 -10 m 2
 116 -10 92 37 92 77 c 0
 92 138 133 163 209 163 c 2
 999 163 l 2
 1054 163 1100 141 1100 76 c 0
 1100 12 1053 -10 981 -10 c 2
 173 -10 l 2
EndSplineSet
EndChar

StartChar: logicalnot
Encoding: 172 172 158
Width: 1287
VWidth: 0
Flags: W
LayerCount: 2
Fore
SplineSet
1159 341 m 2
 1159 270 1105 240 1056 240 c 0
 983 240 954 288 954 380 c 2
 954 639 l 1
 289 639 l 2
 208 639 130 652 130 742 c 0
 130 810 176 844 268 844 c 2
 1015 844 l 2
 1092 844 1159 822 1159 722 c 2
 1159 341 l 2
EndSplineSet
EndChar

StartChar: lozenge
Encoding: 9674 9674 159
Width: 1351
VWidth: 0
Flags: W
LayerCount: 2
Fore
SplineSet
787 -34 m 2
 758 -85 713 -109 670 -109 c 0
 603 -109 556 -30 516 42 c 2
 129 729 l 1
 266 977 404 1217 541 1465 c 0
 580 1536 618 1580 677 1580 c 0
 743 1580 794 1502 836 1426 c 0
 965 1193 1092 962 1224 729 c 1
 787 -34 l 2
677 1285 m 1
 670 1285 l 1
 363 736 l 1
 673 182 l 1
 680 182 l 1
 986 723 l 1
 677 1285 l 1
EndSplineSet
EndChar

StartChar: lslash
Encoding: 322 322 160
Width: 554
VWidth: 0
Flags: W
LayerCount: 2
Fore
SplineSet
117 705 m 1
 64 675 l 1
 45 666 24 654 3 654 c 0
 -53 654 -98 703 -98 762 c 0
 -98 798 -81 833 -38 850 c 1
 117 928 l 1
 117 1247 l 2
 117 1349 153 1451 278 1451 c 0
 385 1451 437 1375 437 1231 c 2
 437 1056 l 1
 538 1106 l 1
 557 1117 577 1128 601 1128 c 0
 655 1128 689 1075 689 1028 c 0
 689 986 647 927 585 903 c 1
 437 833 l 1
 437 204 l 2
 437 93 391 0 276 0 c 0
 167 0 117 71 117 220 c 2
 117 705 l 1
EndSplineSet
EndChar

StartChar: m
Encoding: 109 109 161
Width: 1919
VWidth: 0
Flags: W
LayerCount: 2
Fore
SplineSet
121 809 m 2
 121 936 162 1006 274 1006 c 0
 393 1006 440 936 440 809 c 1
 493 937 630 1023 778 1023 c 0
 917 1023 1054 952 1102 784 c 1
 1185 964 1332 1023 1476 1023 c 0
 1647 1023 1799 901 1799 649 c 2
 1799 197 l 2
 1799 70 1752 0 1633 0 c 0
 1521 0 1480 70 1480 197 c 2
 1480 635 l 2
 1480 756 1411 825 1322 825 c 0
 1213 825 1119 758 1119 602 c 2
 1119 197 l 2
 1119 70 1072 0 953 0 c 0
 841 0 800 70 800 197 c 2
 800 616 l 2
 800 753 739 825 642 825 c 0
 527 825 440 750 440 611 c 2
 440 197 l 2
 440 70 393 0 274 0 c 0
 162 0 121 70 121 197 c 2
 121 809 l 2
EndSplineSet
EndChar

StartChar: middot
Encoding: 183 183 162
Width: 649
VWidth: 0
Flags: W
LayerCount: 2
Fore
SplineSet
150 517 m 0
 150 609 225 686 324 686 c 0
 420 686 499 613 499 517 c 0
 499 426 425 347 324 347 c 0
 223 347 150 424 150 517 c 0
EndSplineSet
EndChar

StartChar: minus
Encoding: 8722 8722 163
Width: 839
VWidth: 0
Flags: W
LayerCount: 2
Fore
SplineSet
166 417 m 2
 94 417 47 469 47 537 c 0
 47 614 101 656 193 656 c 2
 641 656 l 2
 709 656 786 630 786 536 c 0
 786 459 730 417 641 417 c 2
 166 417 l 2
EndSplineSet
EndChar

StartChar: mu
Encoding: 181 181 164
Width: 1238
VWidth: 0
Flags: W
LayerCount: 2
Fore
SplineSet
117 854 m 2
 117 947 188 1005 272 1005 c 0
 381 1005 436 934 436 779 c 2
 436 385 l 2
 436 256 483 177 598 177 c 0
 703 177 794 239 802 382 c 1
 802 779 l 2
 802 899 841 1005 966 1005 c 0
 1074 1005 1122 937 1122 816 c 2
 1122 251 l 2
 1122 115 1108 3 964 3 c 0
 857 3 802 68 802 201 c 1
 754 82 628 20 513 20 c 0
 486 20 460 24 436 32 c 1
 436 -90 l 2
 436 -211 390 -314 270 -314 c 0
 162 -314 117 -247 117 -120 c 2
 117 854 l 2
EndSplineSet
EndChar

StartChar: multiply
Encoding: 215 215 165
Width: 1287
VWidth: 0
Flags: W
LayerCount: 2
Fore
SplineSet
645 651 m 1
 834 840 l 2
 865 871 898 899 937 899 c 0
 989 899 1035 854 1035 798 c 0
 1035 759 1005 726 977 698 c 2
 788 508 l 1
 973 323 l 2
 1002 294 1031 261 1031 226 c 0
 1031 170 980 119 928 119 c 0
 893 119 865 141 838 168 c 2
 643 363 l 1
 453 173 l 2
 418 138 384 115 351 115 c 0
 298 115 252 161 252 214 c 0
 252 250 278 284 310 316 c 2
 499 506 l 1
 313 692 l 2
 282 723 255 752 255 788 c 0
 255 837 296 890 351 895 c 1
 394 895 419 877 450 846 c 2
 645 651 l 1
EndSplineSet
EndChar

StartChar: n
Encoding: 110 110 166
Width: 1238
VWidth: 0
Flags: W
LayerCount: 2
Fore
SplineSet
116 809 m 2
 116 936 157 1006 269 1006 c 0
 388 1006 435 936 435 809 c 1
 483 937 623 1023 788 1023 c 0
 960 1023 1121 901 1121 649 c 2
 1121 197 l 2
 1121 70 1074 0 955 0 c 0
 843 0 802 70 802 197 c 2
 802 635 l 2
 802 762 731 825 640 825 c 0
 527 825 436 752 436 611 c 2
 436 197 l 2
 436 70 389 0 270 0 c 0
 158 0 117 70 117 197 c 2
 116 809 l 2
EndSplineSet
EndChar

StartChar: nine
Encoding: 57 57 167
Width: 1299
VWidth: 0
Flags: W
LayerCount: 2
Fore
SplineSet
229 36 m 1
 182 55 161 94 161 141 c 0
 161 210 210 262 286 262 c 0
 366 262 462 223 548 223 c 0
 786 223 880 397 880 683 c 0
 880 684 878 684 878 685 c 1
 797 556 657 521 514 521 c 1
 268 532 74 686 74 977 c 0
 74 1266 279 1478 628 1478 c 0
 1048 1478 1225 1190 1225 787 c 0
 1225 345 1061 -33 558 -33 c 0
 451 -33 328 -11 229 36 c 1
629 1245 m 0
 484 1245 403 1154 403 987 c 0
 403 830 471 724 616 724 c 0
 769 724 854 822 854 991 c 0
 854 1146 761 1245 629 1245 c 0
EndSplineSet
EndChar

StartChar: notequal
Encoding: 8800 8800 168
Width: 1196
VWidth: 0
Flags: W
LayerCount: 2
Fore
SplineSet
206 698 m 2
 139 698 105 743 105 799 c 0
 105 866 147 901 235 901 c 2
 621 901 l 1
 705 1110 l 1
 730 1177 762 1203 822 1203 c 1
 871 1199 914 1162 914 1111 c 0
 914 1088 906 1063 896 1038 c 2
 839 901 l 1
 999 901 l 2
 1063 901 1130 881 1130 798 c 0
 1130 730 1084 698 1000 698 c 2
 763 698 l 1
 665 457 l 1
 999 457 l 2
 1063 457 1130 437 1130 355 c 0
 1130 287 1087 253 1000 253 c 2
 588 253 l 1
 505 49 l 2
 481 -11 442 -44 394 -44 c 0
 338 -44 296 -4 296 52 c 0
 296 71 304 97 315 122 c 2
 370 253 l 1
 235 253 l 2
 169 253 106 274 106 355 c 0
 106 420 146 457 234 457 c 2
 446 457 l 1
 545 698 l 1
 206 698 l 2
EndSplineSet
EndChar

StartChar: numbersign
Encoding: 35 35 170
Width: 1299
VWidth: 0
Flags: W
LayerCount: 2
Fore
SplineSet
715 429 m 1
 509 429 l 1
 461 90 l 1
 450 22 430 -29 354 -29 c 1
 303 -26 266 13 266 73 c 1
 270 100 l 2
 271 109 271 118 274 129 c 1
 317 429 l 1
 251 429 l 2
 187 429 138 450 138 529 c 1
 141 580 175 612 239 612 c 2
 342 612 l 1
 376 852 l 1
 309 852 l 2
 253 852 195 870 195 944 c 0
 195 1003 233 1035 309 1035 c 2
 402 1035 l 1
 448 1359 l 2
 457 1424 484 1468 555 1468 c 1
 602 1464 641 1432 641 1372 c 1
 638 1337 l 2
 637 1326 634 1317 633 1308 c 0
 620 1216 609 1127 594 1035 c 1
 799 1035 l 1
 846 1359 l 2
 857 1438 889 1468 953 1468 c 1
 1000 1464 1040 1431 1040 1376 c 0
 1040 1361 1037 1346 1036 1333 c 2
 992 1035 l 1
 1046 1035 l 2
 1104 1035 1162 1014 1162 943 c 0
 1162 879 1121 852 1046 852 c 2
 967 852 l 1
 933 612 l 1
 988 612 l 2
 1045 612 1104 593 1104 520 c 0
 1104 456 1063 429 988 429 c 2
 908 429 l 1
 857 77 l 2
 849 21 826 -29 762 -29 c 0
 707 -29 665 8 665 72 c 1
 669 100 l 2
 670 109 670 118 673 129 c 1
 715 429 l 1
535 612 m 1
 740 612 l 1
 774 852 l 1
 568 852 l 1
 535 612 l 1
EndSplineSet
EndChar

StartChar: o
Encoding: 111 111 171
Width: 1258
VWidth: 0
Flags: W
LayerCount: 2
Fore
SplineSet
71 504 m 0
 71 786 254 1025 629 1025 c 0
 988 1025 1188 805 1188 504 c 0
 1188 225 1001 -12 629 -12 c 0
 263 -12 71 212 71 504 c 0
404 504 m 0
 404 328 464 176 629 176 c 0
 781 176 854 309 854 504 c 0
 854 680 791 833 629 833 c 0
 465 833 404 684 404 504 c 0
EndSplineSet
EndChar

StartChar: oe
Encoding: 339 339 175
Width: 1883
VWidth: 0
Flags: W
LayerCount: 2
Fore
SplineSet
1798 533 m 0
 1798 466 1747 450 1675 450 c 2
 1103 450 l 1
 1106 300 1162 190 1366 190 c 0
 1477 190 1551 230 1646 257 c 0
 1653 259 1660 260 1667 260 c 0
 1713 260 1741 214 1741 167 c 0
 1741 21 1483 -30 1312 -30 c 0
 1151 -30 1031 35 951 148 c 1
 871 44 760 -20 604 -20 c 0
 248 -20 66 209 66 504 c 0
 66 796 240 1033 604 1033 c 0
 761 1033 877 968 954 868 c 1
 1038 972 1160 1040 1319 1040 c 0
 1633 1040 1795 833 1798 533 c 0
388 504 m 0
 388 315 448 168 604 168 c 0
 751 168 812 305 815 498 c 1
 815 691 758 841 604 841 c 0
 451 841 388 698 388 504 c 0
1515 599 m 1
 1506 762 1437 856 1305 856 c 0
 1176 856 1105 751 1097 599 c 1
 1515 599 l 1
EndSplineSet
EndChar

StartChar: one
Encoding: 49 49 178
Width: 1299
VWidth: 0
Flags: W
LayerCount: 2
Fore
SplineSet
353 999 m 1
 332 988 311 982 291 982 c 0
 222 982 171 1042 171 1106 c 0
 171 1154 196 1185 252 1220 c 1
 584 1409 l 2
 623 1432 664 1454 712 1454 c 0
 831 1454 884 1367 884 1208 c 2
 884 241 l 2
 884 110 847 1 703 1 c 0
 578 1 525 89 525 264 c 2
 525 1104 l 1
 353 999 l 1
EndSplineSet
EndChar

StartChar: onehalf
Encoding: 189 189 179
Width: 1763
VWidth: 0
Flags: W
LayerCount: 2
Fore
SplineSet
680 1 m 2
 664 -46 628 -64 593 -64 c 0
 545 -64 496 -27 496 26 c 0
 496 54 508 86 519 115 c 1
 940 1353 l 2
 960 1413 990 1471 1046 1471 c 0
 1093 1471 1142 1441 1142 1382 c 0
 1142 1354 1131 1319 1120 1291 c 1
 680 1 l 2
1320 687 m 0
 1256 687 1190 661 1145 645 c 0
 1138 643 1131 642 1126 642 c 0
 1087 642 1061 675 1061 712 c 0
 1061 793 1257 837 1349 837 c 0
 1513 837 1633 759 1633 618 c 0
 1633 458 1458 277 1274 144 c 1
 1521 144 l 2
 1585 144 1637 121 1637 65 c 0
 1637 21 1603 -1 1556 -1 c 2
 1135 -1 l 2
 1082 -1 1035 16 1035 76 c 0
 1034 137 1076 170 1127 214 c 2
 1164 246 l 1
 1192 268 1215 292 1239 314 c 2
 1267 339 l 1
 1371 435 1441 532 1441 597 c 0
 1441 658 1382 687 1320 687 c 0
226 1183 m 2
 214 1176 203 1173 190 1173 c 0
 150 1173 124 1207 124 1242 c 0
 124 1269 139 1287 170 1307 c 1
 351 1413 l 2
 372 1426 394 1439 422 1439 c 0
 479 1439 502 1393 502 1312 c 2
 502 753 l 2
 502 686 491 626 412 626 c 0
 347 626 326 676 326 768 c 2
 326 1243 l 1
 226 1183 l 2
EndSplineSet
EndChar

StartChar: onequarter
Encoding: 188 188 180
Width: 1737
VWidth: 0
Flags: W
LayerCount: 2
Fore
SplineSet
692 1 m 2
 676 -46 639 -64 605 -64 c 0
 552 -64 508 -26 508 29 c 0
 508 57 520 87 531 115 c 1
 951 1353 l 1
 969 1413 1002 1471 1057 1471 c 0
 1107 1471 1153 1439 1153 1378 c 0
 1153 1343 1134 1300 1123 1265 c 2
 692 1 l 2
1236 718 m 1
 1282 802 1322 835 1400 835 c 0
 1491 835 1520 772 1520 648 c 2
 1520 290 l 1
 1548 290 l 2
 1604 290 1636 273 1636 233 c 0
 1636 202 1613 175 1570 175 c 2
 1520 175 l 1
 1520 118 l 2
 1520 55 1500 0 1439 0 c 0
 1378 0 1358 51 1358 131 c 2
 1358 175 l 1
 1077 175 l 2
 1016 175 963 186 963 239 c 0
 963 254 968 270 977 286 c 2
 1236 718 l 1
1129 285 m 1
 1358 285 l 1
 1358 687 l 1
 1129 285 l 1
226 1183 m 2
 214 1176 203 1173 190 1173 c 0
 150 1173 124 1207 124 1242 c 0
 124 1269 139 1287 170 1307 c 1
 351 1413 l 2
 372 1426 394 1439 422 1439 c 0
 479 1439 502 1393 502 1312 c 2
 502 753 l 2
 502 686 491 626 412 626 c 0
 347 626 326 676 326 768 c 2
 326 1243 l 1
 226 1183 l 2
EndSplineSet
EndChar

StartChar: onesuperior
Encoding: 185 185 181
Width: 714
VWidth: 0
Flags: W
LayerCount: 2
Fore
SplineSet
235 1183 m 2
 224 1176 212 1173 200 1173 c 0
 160 1173 133 1207 133 1242 c 0
 133 1269 147 1288 180 1307 c 2
 361 1413 l 2
 382 1426 403 1439 431 1439 c 0
 488 1439 511 1393 511 1312 c 2
 511 753 l 2
 511 685 499 626 422 626 c 0
 358 626 335 677 335 768 c 2
 335 1243 l 1
 235 1183 l 2
EndSplineSet
EndChar

StartChar: ordfeminine
Encoding: 170 170 182
Width: 1123
VWidth: 0
Flags: W
LayerCount: 2
Fore
SplineSet
611 1246 m 2
 611 1330 563 1360 487 1360 c 0
 390 1360 329 1332 262 1313 c 0
 257 1312 253 1311 249 1311 c 0
 214 1311 188 1337 188 1370 c 0
 188 1377 190 1384 193 1392 c 0
 222 1480 341 1514 501 1514 c 0
 689 1514 820 1435 820 1200 c 2
 820 905 l 2
 820 829 811 756 719 756 c 0
 662 756 618 790 618 869 c 1
 617 888 l 1
 577 779 464 739 366 739 c 0
 233 739 125 816 125 956 c 0
 125 1129 268 1202 543 1206 c 0
 562 1206 590 1206 611 1205 c 1
 611 1246 l 2
611 1098 m 1
 472 1098 329 1092 329 973 c 0
 329 900 379 863 451 860 c 1
 544 861 608 930 611 1050 c 1
 611 1098 l 1
EndSplineSet
EndChar

StartChar: ordmasculine
Encoding: 186 186 183
Width: 1026
VWidth: 0
Flags: W
LayerCount: 2
Fore
SplineSet
83 1148 m 0
 83 1337 203 1514 503 1514 c 0
 787 1514 925 1356 925 1148 c 0
 925 953 797 782 503 782 c 0
 211 782 83 944 83 1148 c 0
335 1144 m 0
 335 1027 384 923 504 923 c 0
 620 923 672 1026 672 1150 c 0
 672 1268 620 1372 504 1372 c 0
 387 1372 335 1267 335 1144 c 0
EndSplineSet
EndChar

StartChar: oslash
Encoding: 248 248 184
Width: 1258
VWidth: 0
Flags: W
LayerCount: 2
Fore
SplineSet
71 504 m 0
 71 792 246 1033 629 1033 c 0
 704 1033 770 1025 827 1008 c 1
 912 1149 l 2
 927 1175 948 1188 977 1188 c 0
 1016 1188 1052 1161 1052 1118 c 0
 1052 1091 1032 1053 1017 1025 c 1
 966 947 l 1
 1116 853 1188 688 1188 504 c 0
 1188 220 1005 -20 629 -20 c 0
 556 -20 491 -12 435 5 c 1
 352 -133 l 2
 336 -160 314 -172 291 -172 c 0
 251 -172 216 -141 216 -102 c 0
 216 -79 225 -56 239 -33 c 2
 298 63 l 1
 142 153 71 322 71 504 c 0
875 504 m 0
 875 576 852 655 801 706 c 1
 545 174 l 1
 567 160 597 153 634 153 c 0
 799 153 875 292 875 504 c 0
383 504 m 0
 383 433 407 346 462 304 c 1
 715 836 l 1
 692 850 663 857 629 857 c 0
 454 857 383 708 383 504 c 0
EndSplineSet
EndChar

StartChar: overscore
Encoding: 175 175 186
Width: 569
VWidth: 0
Flags: W
LayerCount: 2
Fore
SplineSet
25 1254 m 2
 -28 1254 -64 1291 -64 1347 c 0
 -64 1400 -29 1439 38 1439 c 2
 535 1439 l 2
 586 1439 635 1414 635 1347 c 0
 635 1291 603 1254 535 1254 c 2
 25 1254 l 2
EndSplineSet
EndChar

StartChar: p
Encoding: 112 112 187
Width: 1258
VWidth: 0
Flags: W
LayerCount: 2
Fore
SplineSet
434 506 m 0
 434 328 485 186 654 186 c 0
 809 186 860 325 860 509 c 0
 860 656 826 833 659 833 c 0
 489 833 433 726 434 506 c 0
433 809 m 1
 500 950 649 1023 784 1023 c 0
 1029 1023 1185 791 1185 500 c 0
 1185 200 1021 -12 779 -12 c 0
 630 -12 510 61 433 186 c 1
 433 -174 l 2
 433 -301 386 -371 267 -371 c 0
 155 -371 114 -301 114 -174 c 2
 114 809 l 2
 114 936 155 1006 267 1006 c 0
 386 1006 433 936 433 809 c 1
EndSplineSet
EndChar

StartChar: paragraph
Encoding: 182 182 188
Width: 1299
VWidth: 0
Flags: W
LayerCount: 2
Fore
SplineSet
944 1451 m 2
 1100 1451 1116 1366 1116 1268 c 0
 1116 841 1114 422 1114 -3 c 0
 1114 -87 1085 -140 1009 -140 c 0
 921 -140 904 -63 904 32 c 2
 904 1288 l 1
 720 1288 l 1
 720 32 l 2
 720 -52 706 -140 615 -140 c 0
 527 -140 510 -63 510 32 c 2
 510 732 l 1
 265 732 97 895 97 1090 c 0
 97 1279 232 1436 488 1449 c 0
 515 1450 541 1451 569 1451 c 2
 944 1451 l 2
EndSplineSet
EndChar

StartChar: parenleft
Encoding: 40 40 189
Width: 689
VWidth: 0
Flags: W
LayerCount: 2
Fore
SplineSet
336 -172 m 1
 223 93 149 344 149 601 c 0
 149 841 213 1077 306 1322 c 1
 340 1417 396 1490 466 1490 c 0
 533 1490 587 1442 587 1365 c 0
 587 1337 577 1305 567 1274 c 0
 493 1050 452 828 452 604 c 0
 452 389 490 178 562 -42 c 0
 572 -75 583 -106 583 -134 c 0
 583 -209 532 -259 464 -259 c 0
 419 -259 362 -238 336 -172 c 1
EndSplineSet
EndChar

StartChar: parenright
Encoding: 41 41 190
Width: 689
VWidth: 0
Flags: W
LayerCount: 2
Fore
SplineSet
360 -172 m 1
 333 -239 273 -260 228 -260 c 0
 161 -260 113 -209 113 -136 c 0
 113 -107 124 -75 135 -43 c 0
 207 170 245 387 245 606 c 0
 245 826 204 1049 130 1274 c 0
 120 1305 110 1334 110 1366 c 0
 110 1436 164 1490 232 1490 c 0
 301 1490 354 1417 390 1322 c 0
 483 1076 548 836 548 600 c 0
 548 341 472 89 360 -172 c 1
EndSplineSet
EndChar

StartChar: partialdiff
Encoding: 8706 8706 191
Width: 1312
VWidth: 0
Flags: W
LayerCount: 2
Fore
SplineSet
226 1339 m 0
 213 1334 201 1331 189 1331 c 0
 128 1331 83 1392 83 1449 c 0
 83 1521 143 1559 302 1605 c 0
 379 1627 462 1643 566 1643 c 0
 937 1643 1214 1362 1214 833 c 0
 1214 323 969 -27 578 -27 c 0
 227 -27 75 256 75 474 c 0
 75 794 270 1021 571 1021 c 0
 758 1021 890 873 920 838 c 1
 920 849 922 874 922 893 c 0
 922 1180 803 1410 550 1410 c 0
 421 1410 313 1374 226 1339 c 0
607 202 m 2
 772 202 870 423 891 609 c 1
 870 681 777 798 637 798 c 0
 481 798 372 646 372 470 c 0
 372 321 464 202 605 202 c 2
 607 202 l 2
EndSplineSet
EndChar

StartChar: percent
Encoding: 37 37 192
Width: 2109
VWidth: 0
Flags: W
LayerCount: 2
Fore
SplineSet
516 1288 m 0
 419 1288 377 1204 377 1025 c 0
 377 846 415 761 516 761 c 0
 616 761 656 845 656 1025 c 0
 656 1204 616 1288 516 1288 c 0
1348 1436 m 2
 1366 1469 1390 1482 1417 1482 c 0
 1455 1482 1490 1448 1490 1409 c 0
 1490 1381 1469 1345 1453 1313 c 1
 752 30 l 2
 728 -13 701 -62 661 -62 c 0
 618 -62 582 -27 582 13 c 0
 582 33 603 73 619 100 c 1
 1348 1436 l 2
516 1457 m 0
 817 1457 893 1212 893 1025 c 0
 893 764 740 592 516 592 c 0
 283 592 140 741 140 1025 c 0
 140 1278 285 1457 516 1457 c 0
1592 831 m 0
 1895 831 1968 582 1968 398 c 0
 1968 145 1824 -35 1592 -35 c 0
 1358 -35 1216 115 1216 398 c 0
 1216 653 1361 831 1592 831 c 0
1592 662 m 0
 1492 662 1453 577 1453 398 c 0
 1453 221 1489 135 1592 135 c 0
 1684 135 1731 210 1731 398 c 0
 1731 570 1695 662 1592 662 c 0
EndSplineSet
EndChar

StartChar: period
Encoding: 46 46 193
Width: 649
VWidth: 0
Flags: W
LayerCount: 2
Fore
SplineSet
155 158 m 0
 155 245 225 322 324 322 c 0
 412 322 493 256 493 158 c 0
 493 69 420 -6 324 -6 c 0
 232 -6 155 65 155 158 c 0
EndSplineSet
EndChar

StartChar: perthousand
Encoding: 8240 8240 194
Width: 2344
VWidth: 0
Flags: W
LayerCount: 2
Fore
SplineSet
364 1301 m 0
 257 1301 226 1199 226 1040 c 0
 226 873 260 778 364 778 c 0
 453 778 501 852 501 1040 c 0
 501 1203 468 1301 364 1301 c 0
1091 1436 m 2
 1109 1469 1132 1482 1159 1482 c 0
 1198 1482 1233 1450 1233 1409 c 0
 1233 1382 1212 1344 1195 1313 c 0
 959 884 731 461 495 30 c 0
 471 -13 442 -62 403 -62 c 0
 362 -62 325 -24 325 13 c 0
 325 36 347 73 362 100 c 2
 1091 1436 l 2
372 1457 m 0
 571 1457 701 1293 701 1049 c 0
 701 806 596 622 356 622 c 0
 160 622 26 779 26 1031 c 0
 26 1272 133 1457 372 1457 c 0
1971 801 m 0
 2174 801 2300 634 2300 392 c 0
 2300 149 2191 -35 1955 -35 c 0
 1762 -35 1625 118 1625 374 c 0
 1625 617 1732 801 1971 801 c 0
1962 644 m 0
 1869 644 1825 564 1825 383 c 0
 1825 220 1857 122 1962 122 c 0
 2054 122 2100 196 2100 383 c 0
 2100 546 2066 644 1962 644 c 0
1217 801 m 0
 1413 801 1547 643 1547 392 c 0
 1547 149 1439 -35 1201 -35 c 0
 1003 -35 872 123 872 374 c 0
 872 617 980 801 1217 801 c 0
1209 644 m 0
 1105 644 1072 545 1072 383 c 0
 1072 219 1102 122 1209 122 c 0
 1302 122 1346 199 1346 383 c 0
 1346 550 1310 644 1209 644 c 0
EndSplineSet
EndChar

StartChar: pi
Encoding: 960 960 195
Width: 1383
VWidth: 0
Flags: W
LayerCount: 2
Fore
SplineSet
1141 864 m 1
 1141 635 l 2
 1141 626 1140 618 1140 607 c 0
 1140 602 1141 596 1141 590 c 2
 1146 453 l 2
 1151 309 1174 172 1174 124 c 0
 1174 40 1114 -4 1038 -4 c 0
 882 -4 847 148 847 489 c 2
 847 864 l 1
 572 864 l 1
 564 637 525 372 468 182 c 0
 434 67 357 -5 270 -5 c 0
 202 -5 151 22 151 101 c 0
 151 108 152 113 153 120 c 0
 170 188 202 276 221 353 c 0
 262 520 290 688 290 864 c 1
 217 864 l 2
 141 864 83 902 83 985 c 0
 83 1045 124 1098 201 1098 c 2
 1210 1098 l 2
 1274 1098 1329 1070 1329 986 c 0
 1329 906 1281 864 1209 864 c 2
 1141 864 l 1
EndSplineSet
EndChar

StartChar: plus
Encoding: 43 43 196
Width: 1287
VWidth: 0
Flags: W
LayerCount: 2
Fore
SplineSet
746 608 m 1
 1026 608 l 2
 1082 608 1159 588 1159 507 c 0
 1159 434 1095 405 1026 405 c 2
 746 405 l 1
 746 134 l 2
 746 77 727 2 643 2 c 0
 571 2 540 57 540 134 c 2
 540 405 l 1
 261 405 l 2
 202 405 128 424 128 507 c 0
 128 576 187 608 261 608 c 2
 540 608 l 1
 540 880 l 2
 540 936 557 1013 643 1013 c 0
 718 1013 746 948 746 880 c 2
 746 608 l 1
EndSplineSet
EndChar

StartChar: plusminus
Encoding: 177 177 197
Width: 1287
VWidth: 0
Flags: W
LayerCount: 2
Fore
SplineSet
746 368 m 2
 746 304 694 268 642 268 c 0
 570 268 540 315 540 407 c 2
 540 537 l 1
 257 537 l 2
 189 537 131 562 131 639 c 0
 131 706 177 740 270 740 c 2
 540 740 l 1
 540 872 l 2
 540 941 557 1011 643 1011 c 0
 715 1011 746 960 746 872 c 2
 746 740 l 1
 1030 740 l 2
 1097 740 1157 715 1157 639 c 0
 1157 570 1107 537 1030 537 c 2
 746 537 l 1
 746 368 l 2
1056 202 m 2
 1120 202 1157 156 1157 101 c 0
 1157 29 1104 0 1016 0 c 2
 251 0 l 2
 182 0 131 27 131 101 c 0
 131 168 178 202 271 202 c 2
 1056 202 l 2
EndSplineSet
EndChar

StartChar: product
Encoding: 8719 8719 198
Width: 1630
VWidth: 0
Flags: W
LayerCount: 2
Fore
SplineSet
1348 1212 m 1
 1348 809 1347 416 1347 13 c 0
 1347 -102 1313 -199 1201 -199 c 0
 1093 -199 1055 -117 1055 13 c 2
 1055 1212 l 1
 572 1212 l 1
 572 84 l 2
 572 -53 551 -199 427 -199 c 0
 319 -199 281 -117 281 13 c 2
 281 1212 l 1
 199 1212 l 2
 103 1212 49 1252 49 1336 c 0
 49 1416 101 1462 206 1462 c 2
 1392 1462 l 2
 1483 1462 1579 1444 1579 1337 c 0
 1579 1258 1532 1212 1433 1212 c 2
 1348 1212 l 1
EndSplineSet
EndChar

StartChar: q
Encoding: 113 113 199
Width: 1258
VWidth: 0
Flags: W
LayerCount: 2
Fore
SplineSet
823 506 m 1
 823 724 773 833 604 833 c 0
 441 833 397 665 397 509 c 0
 397 352 433 187 604 187 c 0
 761 187 822 316 823 506 c 1
824 809 m 1
 824 936 865 1006 977 1006 c 0
 1096 1006 1143 936 1143 809 c 2
 1142 -150 l 2
 1142 -277 1095 -347 976 -347 c 0
 864 -347 823 -277 823 -150 c 2
 823 186 l 1
 747 65 631 -12 476 -12 c 0
 248 -12 72 183 72 500 c 0
 72 776 216 1023 468 1023 c 0
 617 1023 749 949 824 809 c 1
EndSplineSet
EndChar

StartChar: question
Encoding: 63 63 200
Width: 1064
VWidth: 0
Flags: W
LayerCount: 2
Fore
SplineSet
325 1234 m 1
 301 1233 253 1230 206 1223 c 0
 199 1222 193 1222 186 1222 c 0
 118 1222 69 1273 69 1350 c 0
 69 1399 100 1451 171 1472 c 0
 275 1503 389 1514 490 1514 c 0
 750 1514 969 1395 969 1112 c 1
 964 926 828 819 711 718 c 0
 628 646 578 612 575 545 c 1
 575 474 539 378 415 378 c 1
 331 385 282 428 282 537 c 2
 282 586 l 1
 290 750 454 836 530 929 c 0
 567 975 596 1029 596 1084 c 0
 596 1200 507 1241 412 1241 c 0
 385 1241 356 1238 325 1234 c 1
260 107 m 0
 260 192 328 270 429 270 c 0
 517 270 598 203 598 107 c 0
 598 16 525 -58 429 -58 c 0
 333 -58 260 16 260 107 c 0
EndSplineSet
EndChar

StartChar: quotedbl
Encoding: 34 34 202
Width: 908
VWidth: 0
Flags: W
LayerCount: 2
Fore
SplineSet
517 1363 m 2
 516 1366 516 1370 516 1376 c 0
 516 1437 572 1476 639 1476 c 0
 699 1476 760 1442 760 1370 c 1
 758 1348 l 2
 758 1341 757 1332 757 1325 c 2
 728 1041 l 1
 718 964 688 925 637 925 c 0
 597 925 557 957 550 1022 c 2
 517 1363 l 2
143 1363 m 2
 142 1366 142 1370 142 1376 c 0
 142 1437 198 1476 265 1476 c 0
 326 1476 387 1445 387 1370 c 1
 385 1348 l 2
 384 1341 383 1332 383 1325 c 2
 354 1041 l 2
 346 965 313 925 264 925 c 0
 224 925 182 957 176 1022 c 2
 143 1363 l 2
EndSplineSet
EndChar

StartChar: quotedblbase
Encoding: 8222 8222 203
Width: 1178
VWidth: 0
Flags: W
LayerCount: 2
Fore
SplineSet
409 -220 m 1
 136 -220 l 1
 252 301 l 1
 581 301 l 1
 409 -220 l 1
883 -220 m 1
 581 -220 l 1
 726 301 l 1
 1055 301 l 1
 883 -220 l 1
EndSplineSet
EndChar

StartChar: quotedblleft
Encoding: 8220 8220 204
Width: 1178
VWidth: 0
Flags: W
LayerCount: 2
Fore
SplineSet
292 1451 m 1
 565 1451 l 1
 449 930 l 1
 120 930 l 1
 292 1451 l 1
772 1451 m 1
 1045 1451 l 1
 929 930 l 1
 600 930 l 1
 772 1451 l 1
EndSplineSet
EndChar

StartChar: quotedblright
Encoding: 8221 8221 205
Width: 1178
VWidth: 0
Flags: W
LayerCount: 2
Fore
SplineSet
882 930 m 1
 609 930 l 1
 725 1451 l 1
 1055 1451 l 1
 882 930 l 1
404 930 m 1
 131 930 l 1
 248 1451 l 1
 577 1451 l 1
 404 930 l 1
EndSplineSet
EndChar

StartChar: quoteleft
Encoding: 8216 8216 206
Width: 649
VWidth: 0
Flags: W
LayerCount: 2
Fore
SplineSet
271 1451 m 1
 544 1451 l 1
 427 930 l 1
 99 930 l 1
 271 1451 l 1
EndSplineSet
EndChar

StartChar: quoteright
Encoding: 8217 8217 207
Width: 649
VWidth: 0
Flags: W
LayerCount: 2
Fore
SplineSet
379 930 m 1
 106 930 l 1
 223 1451 l 1
 552 1451 l 1
 379 930 l 1
EndSplineSet
EndChar

StartChar: quotesinglbase
Encoding: 8218 8218 208
Width: 649
VWidth: 0
Flags: W
LayerCount: 2
Fore
SplineSet
379 -220 m 1
 106 -220 l 1
 223 301 l 1
 552 301 l 1
 379 -220 l 1
EndSplineSet
EndChar

StartChar: quotesingle
Encoding: 39 39 209
Width: 649
VWidth: 0
Flags: W
LayerCount: 2
Fore
SplineSet
202 1363 m 2
 201 1366 201 1370 201 1376 c 0
 201 1437 257 1476 324 1476 c 0
 386 1476 445 1443 445 1371 c 1
 442 1325 l 1
 414 1041 l 1
 404 964 374 925 323 925 c 0
 283 925 241 957 236 1022 c 1
 202 1363 l 2
EndSplineSet
EndChar

StartChar: r
Encoding: 114 114 210
Width: 824
VWidth: 0
Flags: W
LayerCount: 2
Fore
SplineSet
436 197 m 2
 436 70 389 0 270 0 c 0
 158 0 117 70 117 197 c 2
 117 857 l 2
 117 955 195 1006 279 1006 c 0
 383 1006 436 939 436 807 c 1
 459 942 549 1023 685 1023 c 0
 769 1023 812 962 812 902 c 0
 812 817 748 779 648 772 c 1
 529 761 436 708 436 553 c 2
 436 197 l 2
EndSplineSet
EndChar

StartChar: registered
Encoding: 174 174 212
Width: 1740
VWidth: 0
Flags: W
LayerCount: 2
Fore
SplineSet
594 1034 m 2
 594 1103 624 1138 685 1138 c 2
 879 1138 l 2
 1103 1138 1219 1096 1219 913 c 0
 1219 778 1134 722 1006 703 c 1
 1137 505 l 1
 1150 482 1164 458 1164 441 c 0
 1164 401 1131 372 1092 372 c 0
 1051 372 1023 406 999 449 c 2
 856 698 l 1
 746 698 l 1
 746 475 l 2
 746 419 729 369 669 369 c 0
 630 369 594 391 594 442 c 2
 594 1034 l 2
746 1015 m 1
 746 820 l 1
 774 820 l 2
 821 820 865 819 904 819 c 0
 1000 819 1064 833 1064 924 c 0
 1064 993 1004 1015 905 1015 c 2
 746 1015 l 1
872 49 m 0
 469 49 133 362 133 751 c 0
 133 1129 454 1460 872 1460 c 0
 1263 1460 1610 1154 1610 751 c 0
 1610 373 1285 49 872 49 c 0
299 751 m 0
 299 443 537 189 872 189 c 0
 1188 189 1445 426 1445 751 c 0
 1445 1055 1210 1313 872 1313 c 0
 556 1313 299 1076 299 751 c 0
EndSplineSet
EndChar

StartChar: ring
Encoding: 730 730 213
Width: 569
VWidth: 0
Flags: W
LayerCount: 2
Fore
SplineSet
58 1339 m 0
 58 1459 159 1562 285 1562 c 0
 403 1562 511 1463 511 1339 c 0
 511 1215 408 1115 285 1115 c 0
 165 1115 58 1214 58 1339 c 0
384 1339 m 0
 384 1390 338 1436 285 1436 c 0
 232 1436 186 1391 186 1339 c 0
 186 1287 232 1242 285 1242 c 0
 336 1242 384 1287 384 1339 c 0
EndSplineSet
EndChar

StartChar: s
Encoding: 115 115 214
Width: 1071
VWidth: 0
Flags: W
LayerCount: 2
Fore
SplineSet
371 738 m 0
 371 686 419 660 499 642 c 0
 727 589 1010 565 1010 318 c 0
 1010 112 830 -9 569 -12 c 1
 322 -12 91 50 91 178 c 0
 91 234 131 266 187 266 c 0
 230 266 306 229 390 207 c 0
 444 193 499 183 560 183 c 0
 636 183 708 211 716 279 c 1
 720 287 723 294 723 305 c 0
 723 342 687 373 626 390 c 1
 317 462 89 480 89 734 c 0
 89 919 262 1025 544 1025 c 0
 797 1025 933 958 933 861 c 0
 933 806 892 777 841 777 c 0
 787 777 736 826 574 826 c 0
 451 826 371 807 371 738 c 0
EndSplineSet
EndChar

StartChar: section
Encoding: 167 167 216
Width: 1299
VWidth: 0
Flags: W
LayerCount: 2
Fore
SplineSet
610 911 m 1
 529 862 478 824 478 762 c 0
 478 684 584 643 675 603 c 1
 758 648 824 694 824 758 c 0
 824 835 727 866 610 911 c 1
983 1477 m 0
 1039 1465 1063 1424 1063 1385 c 0
 1063 1335 1025 1290 969 1290 c 0
 958 1290 948 1292 938 1295 c 1
 891 1304 l 2
 847 1312 809 1320 762 1320 c 0
 690 1320 605 1298 605 1223 c 0
 605 1054 1096 1102 1096 790 c 0
 1096 662 1012 564 871 511 c 1
 982 466 1057 389 1057 271 c 0
 1057 81 894 -32 638 -35 c 1
 604 -35 l 2
 484 -35 364 -19 252 10 c 0
 196 24 174 58 174 97 c 0
 174 147 215 195 270 195 c 0
 305 195 353 175 394 168 c 0
 433 161 474 159 525 159 c 0
 613 159 698 198 698 289 c 0
 698 459 196 406 196 721 c 0
 196 829 287 945 423 982 c 1
 420 983 417 985 416 988 c 1
 301 1035 240 1116 240 1219 c 0
 240 1416 388 1514 685 1514 c 0
 789 1514 883 1498 983 1477 c 0
EndSplineSet
EndChar

StartChar: semicolon
Encoding: 59 59 217
Width: 649
VWidth: 0
Flags: W
LayerCount: 2
Fore
SplineSet
191 901 m 0
 191 986 261 1064 361 1064 c 0
 450 1064 530 996 530 901 c 0
 530 810 460 736 361 736 c 0
 271 736 191 802 191 901 c 0
359 -223 m 1
 86 -223 l 1
 202 298 l 1
 532 298 l 1
 359 -223 l 1
EndSplineSet
EndChar

StartChar: seven
Encoding: 55 55 218
Width: 1299
VWidth: 0
Flags: W
LayerCount: 2
Fore
SplineSet
677 102 m 1
 642 33 584 0 521 0 c 0
 431 0 348 65 348 157 c 1
 347 206 374 264 400 321 c 2
 803 1194 l 1
 275 1194 l 2
 171 1194 97 1230 97 1323 c 0
 97 1410 157 1453 276 1453 c 2
 949 1453 l 2
 1085 1453 1177 1429 1177 1312 c 0
 1177 1241 1139 1148 1099 1057 c 2
 677 102 l 1
EndSplineSet
EndChar

StartChar: six
Encoding: 54 54 219
Width: 1299
VWidth: 0
Flags: W
LayerCount: 2
Fore
SplineSet
1069 1399 m 0
 1116 1378 1137 1337 1137 1294 c 0
 1137 1229 1089 1164 1021 1164 c 0
 1015 1164 1010 1164 1007 1165 c 0
 922 1183 836 1215 760 1215 c 0
 506 1215 419 1030 419 770 c 1
 421 768 l 1
 493 888 625 931 765 931 c 0
 1021 931 1225 766 1225 476 c 0
 1225 179 1010 -25 670 -25 c 0
 252 -25 74 258 74 666 c 0
 74 1110 234 1467 741 1467 c 0
 844 1467 965 1446 1069 1399 c 0
670 209 m 0
 815 209 896 299 896 466 c 0
 896 622 828 729 682 729 c 0
 527 729 445 627 445 462 c 0
 445 305 534 209 670 209 c 0
EndSplineSet
EndChar

StartChar: slash
Encoding: 47 47 220
Width: 669
VWidth: 0
Flags: W
LayerCount: 2
Fore
SplineSet
199 -40 m 2
 182 -91 142 -108 105 -108 c 0
 57 -108 0 -75 0 -15 c 0
 0 12 14 48 25 81 c 0
 166 505 309 920 449 1344 c 0
 471 1411 503 1469 564 1469 c 0
 617 1469 667 1437 667 1370 c 0
 667 1343 655 1308 644 1279 c 1
 199 -40 l 2
EndSplineSet
EndChar

StartChar: sterling
Encoding: 163 163 222
Width: 1399
VWidth: 0
Flags: W
LayerCount: 2
Fore
SplineSet
195 671 m 2
 120 671 82 723 82 784 c 0
 82 856 128 900 228 900 c 2
 278 900 l 1
 278 1036 l 2
 278 1311 430 1479 752 1479 c 0
 912 1479 1185 1435 1185 1286 c 0
 1185 1230 1146 1187 1069 1187 c 0
 984 1187 858 1235 776 1235 c 0
 620 1235 607 1158 607 970 c 2
 607 900 l 1
 824 900 l 2
 908 900 970 873 970 792 c 0
 970 707 912 671 789 671 c 2
 607 671 l 1
 607 265 l 1
 1087 265 l 2
 1190 265 1284 233 1284 128 c 0
 1284 35 1225 -1 1122 -1 c 2
 267 -1 l 2
 175 -1 101 24 101 128 c 0
 101 200 141 260 233 260 c 2
 278 260 l 1
 278 671 l 1
 195 671 l 2
EndSplineSet
EndChar

StartChar: summation
Encoding: 8721 8721 223
Width: 1283
VWidth: 0
Flags: W
LayerCount: 2
Fore
SplineSet
143 -202 m 2
 62 -202 27 -162 27 -122 c 0
 27 -78 63 -23 96 18 c 0
 263 222 424 422 591 625 c 1
 120 1219 l 1
 83 1261 50 1326 50 1370 c 0
 50 1433 95 1462 203 1462 c 2
 1169 1462 l 2
 1258 1462 1313 1426 1313 1341 c 0
 1313 1253 1245 1221 1137 1221 c 2
 482 1221 l 1
 482 1213 l 1
 929 661 l 1
 437 60 l 1
 437 51 l 1
 1178 51 l 2
 1270 51 1357 29 1357 -76 c 0
 1357 -155 1312 -202 1212 -202 c 2
 143 -202 l 2
EndSplineSet
EndChar

StartChar: t
Encoding: 116 116 224
Width: 785
VWidth: 0
Flags: W
LayerCount: 2
Fore
SplineSet
212 1010 m 1
 234 1217 l 2
 242 1296 267 1388 386 1388 c 0
 474 1388 511 1326 511 1205 c 2
 511 1010 l 1
 623 1010 l 2
 691 1010 738 977 738 904 c 0
 738 836 689 802 612 802 c 2
 511 802 l 1
 511 424 l 2
 511 263 514 204 622 204 c 0
 700 204 773 197 773 106 c 0
 773 6 667 -12 504 -12 c 1
 317 -9 191 88 191 356 c 2
 191 802 l 1
 145 802 l 2
 73 802 19 834 19 910 c 0
 19 970 57 1010 134 1010 c 2
 212 1010 l 1
EndSplineSet
EndChar

StartChar: thorn
Encoding: 254 254 225
Width: 1258
VWidth: 0
Flags: W
LayerCount: 2
Fore
SplineSet
431 -190 m 2
 431 -289 338 -339 265 -339 c 0
 154 -339 114 -269 114 -141 c 2
 114 1225 l 2
 114 1334 128 1446 267 1446 c 0
 397 1446 434 1318 434 1149 c 2
 434 830 l 1
 498 961 634 1030 777 1030 c 0
 1011 1030 1185 840 1185 512 c 0
 1185 213 1027 -17 783 -17 c 0
 640 -17 511 50 431 197 c 1
 431 -190 l 2
434 514 m 0
 434 296 481 174 658 174 c 0
 822 174 860 339 860 511 c 0
 860 682 819 834 651 834 c 0
 484 834 434 700 434 514 c 0
EndSplineSet
EndChar

StartChar: three
Encoding: 51 51 226
Width: 1299
VWidth: 0
Flags: W
LayerCount: 2
Fore
SplineSet
566 847 m 2
 701 847 808 906 808 1035 c 0
 808 1151 705 1208 581 1208 c 1
 529 1209 469 1199 416 1189 c 2
 358 1178 l 2
 326 1172 314 1168 297 1168 c 0
 222 1168 170 1217 170 1285 c 0
 170 1398 313 1473 614 1473 c 0
 961 1473 1157 1314 1157 1078 c 0
 1157 914 1041 780 902 753 c 1
 902 749 l 1
 1087 720 1188 582 1188 397 c 0
 1188 105 939 -20 625 -20 c 0
 525 -20 394 5 286 45 c 0
 213 72 167 115 167 179 c 0
 167 244 219 298 300 298 c 2
 309 298 l 1
 366 282 478 243 587 243 c 0
 722 243 827 290 827 421 c 0
 827 550 731 624 563 624 c 2
 492 624 l 2
 423 624 384 674 384 734 c 0
 384 790 421 847 492 847 c 2
 566 847 l 2
EndSplineSet
EndChar

StartChar: threequarters
Encoding: 190 190 227
Width: 1857
VWidth: 0
Flags: W
LayerCount: 2
Fore
SplineSet
327 1098 m 0
 407 1098 469 1142 469 1219 c 0
 469 1285 408 1320 336 1320 c 0
 272 1320 175 1292 157 1292 c 0
 116 1292 89 1320 89 1356 c 0
 89 1400 141 1435 225 1449 c 2
 267 1456 l 2
 294 1460 322 1463 349 1463 c 0
 511 1463 626 1369 626 1224 c 0
 626 1129 566 1066 478 1039 c 1
 478 1037 l 1
 582 1014 647 937 647 824 c 0
 647 692 538 593 349 593 c 0
 253 593 91 631 91 700 c 0
 91 732 111 768 164 768 c 0
 196 768 272 733 344 733 c 0
 421 733 481 762 481 838 c 0
 481 906 427 969 326 969 c 2
 280 969 l 2
 237 969 217 998 217 1033 c 0
 217 1091 259 1098 327 1098 c 0
784 1 m 2
 768 -46 733 -64 698 -64 c 0
 647 -64 601 -27 601 26 c 0
 601 54 613 86 624 115 c 1
 1045 1353 l 2
 1065 1413 1094 1471 1150 1471 c 0
 1206 1471 1247 1437 1247 1377 c 0
 1247 1345 1227 1298 1216 1265 c 2
 784 1 l 2
1319 718 m 1
 1361 805 1410 835 1483 835 c 0
 1574 835 1603 772 1603 648 c 2
 1603 290 l 1
 1631 290 l 2
 1687 290 1719 273 1719 233 c 0
 1719 194 1691 175 1642 175 c 2
 1603 175 l 1
 1603 118 l 2
 1603 55 1583 0 1522 0 c 0
 1461 0 1441 53 1441 131 c 2
 1441 175 l 1
 1160 175 l 2
 1099 175 1045 185 1045 240 c 0
 1045 255 1050 271 1059 286 c 2
 1319 718 l 1
1212 285 m 1
 1441 285 l 1
 1441 687 l 1
 1212 285 l 1
EndSplineSet
EndChar

StartChar: threesuperior
Encoding: 179 179 228
Width: 851
VWidth: 0
Flags: W
LayerCount: 2
Fore
SplineSet
396 1094 m 2
 476 1094 538 1138 538 1215 c 0
 538 1282 478 1317 405 1317 c 0
 340 1317 245 1288 227 1288 c 0
 184 1288 158 1317 158 1352 c 0
 158 1396 207 1430 295 1445 c 2
 336 1452 l 2
 363 1456 391 1459 418 1459 c 0
 579 1459 696 1368 696 1220 c 0
 696 1124 637 1062 548 1035 c 1
 656 1002 717 933 717 820 c 0
 717 684 602 589 418 589 c 0
 327 589 160 625 160 695 c 0
 160 727 181 764 234 764 c 0
 265 764 347 729 414 729 c 0
 490 729 550 759 550 835 c 0
 550 902 496 965 396 965 c 2
 349 965 l 2
 308 965 287 996 287 1029 c 0
 287 1062 309 1094 349 1094 c 2
 396 1094 l 2
EndSplineSet
EndChar

StartChar: tilde
Encoding: 732 732 229
Width: 569
VWidth: 0
Flags: W
LayerCount: 2
Fore
SplineSet
427 1313 m 0
 478 1313 461 1399 544 1420 c 0
 547 1421 552 1421 559 1421 c 0
 598 1421 633 1394 633 1353 c 0
 633 1212 542 1133 433 1133 c 0
 313 1133 213 1240 143 1240 c 0
 108 1240 89 1209 72 1177 c 0
 53 1142 25 1132 -6 1132 c 0
 -45 1132 -77 1155 -77 1198 c 0
 -77 1202 -77 1205 -76 1208 c 0
 -61 1340 4 1419 127 1419 c 0
 255 1419 357 1313 427 1313 c 0
EndSplineSet
EndChar

StartChar: trademark
Encoding: 8482 8482 230
Width: 1990
VWidth: 0
Flags: W
LayerCount: 2
Fore
SplineSet
1045 1186 m 1
 1045 781 l 2
 1045 705 1023 645 951 645 c 0
 883 645 857 691 857 779 c 2
 857 1222 l 2
 857 1317 879 1422 1007 1422 c 0
 1079 1422 1132 1365 1168 1277 c 2
 1326 889 l 1
 1484 1277 l 2
 1515 1353 1563 1421 1648 1421 c 0
 1737 1421 1794 1363 1794 1242 c 2
 1794 779 l 2
 1794 706 1772 645 1699 645 c 0
 1630 645 1606 696 1606 781 c 2
 1606 1186 l 1
 1434 759 l 2
 1410 700 1383 652 1324 652 c 0
 1273 652 1248 685 1225 741 c 2
 1045 1186 l 1
291 1282 m 1
 175 1282 l 2
 115 1282 69 1299 69 1353 c 0
 69 1388 94 1423 146 1423 c 2
 603 1423 l 2
 655 1423 710 1413 710 1352 c 0
 710 1301 669 1282 606 1282 c 2
 491 1282 l 1
 491 775 l 2
 491 703 463 646 391 646 c 0
 324 646 291 689 291 775 c 2
 291 1282 l 1
EndSplineSet
EndChar

StartChar: two
Encoding: 50 50 231
Width: 1299
VWidth: 0
Flags: W
LayerCount: 2
Fore
SplineSet
601 1196 m 0
 501 1196 398 1157 314 1125 c 0
 296 1118 280 1115 265 1115 c 0
 197 1115 147 1173 147 1242 c 0
 147 1290 173 1339 238 1367 c 0
 370 1423 528 1462 656 1462 c 0
 943 1462 1153 1325 1153 1078 c 0
 1153 796 852 491 532 259 c 1
 967 259 l 2
 1070 259 1164 227 1164 131 c 0
 1164 44 1113 0 1021 0 c 2
 277 0 l 2
 180 0 103 34 103 142 c 0
 103 209 133 268 194 320 c 2
 340 444 l 2
 380 479 421 512 449 539 c 2
 489 577 l 1
 681 753 809 926 809 1042 c 0
 809 1145 711 1196 601 1196 c 0
EndSplineSet
EndChar

StartChar: twosuperior
Encoding: 178 178 232
Width: 764
VWidth: 0
Flags: W
LayerCount: 2
Fore
SplineSet
358 1313 m 0
 299 1313 238 1289 193 1272 c 1
 185 1267 176 1266 165 1266 c 0
 126 1266 99 1298 99 1337 c 0
 99 1420 293 1462 388 1462 c 0
 557 1462 671 1380 671 1244 c 0
 671 1082 497 906 312 769 c 1
 553 769 l 2
 617 769 678 756 678 696 c 0
 678 645 641 624 581 624 c 2
 174 624 l 2
 122 624 73 642 73 699 c 0
 73 738 93 779 134 814 c 0
 298 954 479 1109 479 1223 c 0
 479 1284 420 1313 358 1313 c 0
EndSplineSet
EndChar

StartChar: u
Encoding: 117 117 233
Width: 1238
VWidth: 0
Flags: W
LayerCount: 2
Fore
SplineSet
436 371 m 2
 436 246 507 184 598 184 c 0
 705 184 803 248 803 385 c 2
 803 809 l 2
 803 936 844 1006 956 1006 c 0
 1075 1006 1122 936 1122 809 c 2
 1122 197 l 2
 1122 70 1075 0 956 0 c 0
 844 0 803 70 803 197 c 1
 747 74 621 -10 457 -10 c 0
 278 -10 117 116 117 360 c 2
 117 809 l 2
 117 936 158 1006 270 1006 c 0
 389 1006 436 936 436 809 c 2
 436 371 l 2
EndSplineSet
EndChar

StartChar: underscore
Encoding: 95 95 238
Width: 1024
VWidth: 0
Flags: W
LayerCount: 2
Fore
SplineSet
66 -255 m 2
 22 -255 0 -222 0 -187 c 0
 0 -138 30 -118 94 -118 c 2
 956 -118 l 2
 1000 -118 1023 -151 1023 -187 c 0
 1023 -236 988 -255 928 -255 c 2
 66 -255 l 2
EndSplineSet
EndChar

StartChar: uni030F
Encoding: 783 783 270
Width: 569
VWidth: 0
Flags: W
LayerCount: 2
Fore
SplineSet
-96 1404 m 2
 -119 1424 -130 1450 -130 1476 c 0
 -130 1547 -52 1601 8 1601 c 0
 51 1601 85 1571 116 1527 c 2
 314 1242 l 2
 327 1223 336 1206 339 1187 c 1
 339 1148 305 1119 270 1119 c 0
 250 1119 216 1133 196 1152 c 1
 -96 1404 l 2
350 1404 m 0
 327 1423 316 1446 316 1475 c 0
 316 1540 386 1601 453 1601 c 0
 496 1601 532 1570 567 1522 c 1
 761 1240 l 2
 775 1219 783 1202 784 1178 c 1
 780 1147 754 1119 718 1119 c 0
 691 1119 655 1140 628 1164 c 0
 535 1245 442 1324 350 1404 c 0
EndSplineSet
EndChar

StartChar: uni0311
Encoding: 785 785 271
Width: 569
VWidth: 0
Flags: W
LayerCount: 2
Fore
SplineSet
285 1468 m 0
 439 1468 604 1389 619 1225 c 1
 619 1172 579 1142 532 1142 c 0
 485 1142 454 1171 426 1215 c 1
 393 1258 353 1275 285 1275 c 0
 220 1275 180 1260 151 1221 c 0
 116 1174 82 1142 30 1142 c 1
 -10 1145 -50 1173 -50 1224 c 0
 -50 1296 20 1384 91 1423 c 0
 146 1453 210 1468 285 1468 c 0
EndSplineSet
EndChar

StartChar: uni0326
Encoding: 806 806 272
Width: 649
VWidth: 0
Flags: W
LayerCount: 2
Fore
SplineSet
341 -723 m 1
 68 -723 l 1
 184 -202 l 1
 514 -202 l 1
 341 -723 l 1
EndSplineSet
EndChar

StartChar: v
Encoding: 118 118 278
Width: 1117
VWidth: 0
Flags: W
LayerCount: 2
Fore
SplineSet
827 222 m 1
 771 61 693 0 560 0 c 0
 402 0 337 100 257 316 c 2
 96 748 l 1
 81 785 59 832 59 868 c 0
 59 951 122 1006 202 1006 c 0
 296 1006 372 877 396 785 c 1
 560 276 l 1
 735 822 l 1
 764 923 816 1006 906 1006 c 0
 983 1006 1055 958 1055 868 c 0
 1055 833 1034 785 1021 748 c 0
 957 571 892 398 827 222 c 1
EndSplineSet
EndChar

StartChar: w
Encoding: 119 119 279
Width: 1769
VWidth: 0
Flags: W
LayerCount: 2
Fore
SplineSet
891 767 m 1
 746 312 l 1
 682 106 614 0 475 0 c 0
 363 0 299 74 246 258 c 1
 108 720 l 1
 93 765 70 818 70 862 c 0
 70 949 123 1006 195 1006 c 0
 280 1006 337 936 358 843 c 1
 507 270 l 1
 670 768 l 1
 710 899 751 1010 892 1010 c 0
 1022 1010 1068 938 1108 793 c 1
 1263 278 l 1
 1404 795 l 1
 1431 902 1475 1010 1573 1010 c 0
 1653 1010 1699 955 1699 875 c 1
 1700 836 1682 787 1668 744 c 2
 1519 284 l 2
 1470 132 1415 0 1280 0 c 0
 1160 0 1097 71 1028 313 c 1
 891 767 l 1
EndSplineSet
EndChar

StartChar: x
Encoding: 120 120 280
Width: 1126
VWidth: 0
Flags: W
LayerCount: 2
Fore
SplineSet
354 519 m 1
 294 591 238 661 181 733 c 0
 144 779 111 829 111 873 c 0
 111 949 183 1006 263 1006 c 0
 319 1006 370 961 411 904 c 2
 566 690 l 1
 645 793 727 938 822 983 c 1
 841 998 862 1004 883 1004 c 0
 953 1004 1017 947 1017 880 c 0
 1017 836 983 787 948 740 c 1
 773 521 l 1
 838 438 903 357 969 274 c 0
 1005 228 1039 175 1039 133 c 0
 1039 66 974 5 902 5 c 0
 854 5 776 47 729 116 c 1
 557 348 l 1
 384 115 l 1
 336 48 265 5 218 5 c 0
 149 5 86 67 86 131 c 1
 87 171 123 232 162 280 c 2
 354 519 l 1
EndSplineSet
EndChar

StartChar: y
Encoding: 121 121 281
Width: 1091
VWidth: 0
Flags: W
LayerCount: 2
Fore
SplineSet
403 13 m 1
 77 774 l 2
 62 807 47 843 47 876 c 0
 47 953 110 1006 186 1006 c 0
 270 1006 323 914 358 823 c 1
 550 301 l 1
 748 826 l 1
 771 891 809 937 850 968 c 1
 867 995 895 1005 924 1005 c 0
 993 1005 1051 940 1051 871 c 0
 1051 836 1031 791 1016 754 c 2
 615 -264 l 2
 581 -351 534 -431 454 -431 c 0
 371 -431 303 -375 303 -288 c 0
 303 -249 326 -200 341 -159 c 2
 403 13 l 1
EndSplineSet
EndChar

StartChar: yen
Encoding: 165 165 284
Width: 1338
VWidth: 0
Flags: W
LayerCount: 2
Fore
SplineSet
878 654 m 1
 1142 654 l 2
 1185 654 1207 620 1207 588 c 0
 1207 553 1186 522 1142 522 c 2
 857 522 l 1
 857 407 l 1
 1142 407 l 2
 1185 407 1207 374 1207 341 c 0
 1207 306 1186 274 1142 274 c 2
 856 274 l 1
 856 223 l 2
 856 106 811 2 670 2 c 0
 550 2 484 70 484 223 c 2
 484 274 l 1
 211 274 l 2
 166 274 146 307 146 342 c 0
 146 373 164 407 211 407 c 2
 484 407 l 1
 484 522 l 1
 211 522 l 2
 166 522 146 554 146 589 c 0
 146 621 166 654 211 654 c 2
 458 654 l 1
 144 1165 l 2
 115 1212 83 1267 83 1308 c 0
 83 1385 156 1442 240 1442 c 0
 336 1442 428 1328 463 1252 c 1
 686 849 l 1
 915 1259 l 1
 969 1361 1040 1444 1122 1444 c 0
 1191 1444 1264 1401 1264 1324 c 0
 1264 1284 1233 1230 1206 1187 c 0
 1096 1008 989 833 878 654 c 1
EndSplineSet
EndChar

StartChar: z
Encoding: 122 122 285
Width: 1007
VWidth: 0
Flags: W
LayerCount: 2
Fore
SplineSet
832 228 m 2
 904 228 946 169 946 114 c 0
 946 31 884 0 788 0 c 2
 214 0 l 2
 137 0 67 25 67 112 c 0
 67 156 93 198 124 237 c 2
 550 780 l 1
 246 780 l 2
 159 780 89 807 89 895 c 0
 89 972 141 1010 246 1010 c 2
 764 1010 l 2
 863 1010 943 992 943 904 c 0
 943 861 911 816 883 777 c 1
 465 228 l 1
 832 228 l 2
EndSplineSet
EndChar

StartChar: zero
Encoding: 48 48 287
Width: 1299
VWidth: 0
Flags: W
LayerCount: 2
Fore
SplineSet
649 1212 m 0
 465 1212 430 1007 430 711 c 0
 430 414 465 212 649 212 c 0
 830 212 869 411 869 711 c 0
 869 1004 833 1212 649 1212 c 0
649 1457 m 0
 1070 1457 1226 1124 1226 711 c 0
 1226 304 1077 -35 649 -35 c 0
 222 -35 72 299 72 711 c 0
 72 1111 214 1457 649 1457 c 0
EndSplineSet
EndChar
